<svg viewBox="0 0 352 84" xmlns="http://www.w3.org/2000/svg" xmlns:xlink="http://www.w3.org/1999/xlink"><title>logo_eHnv_full</title><defs><path id="path-1" d="M0 .879h351.67V84H0V.879z"/><path id="path-3" d="M0 .879h351.67V84H0V.879z"/></defs><g id="Page-1" fill="none" fill-rule="evenodd"><g id="logo_eHnv_full"><path d="M71.997 20.762h-6.661c-.967 0-1.762.796-1.762 1.771l-.003 14.94H48.895l-.011-14.94c0-.975-.795-1.77-1.761-1.77H40.46c-.981 0-1.773.795-1.773 1.77v39.725c0 .976.792 1.771 1.773 1.771h6.663c.966 0 1.76-.797 1.76-1.77l.012-16.376H63.57l.003 16.375c0 .974.795 1.771 1.762 1.771h6.66c.974 0 1.767-.797 1.767-1.769V22.533c0-.975-.793-1.77-1.766-1.77" id="Fill-1" fill="#fff"/><path d="M23.633 20.117c.116-.129 12.409-12.36 33.04-12.36 19.706 0 31.467 12.58 31.568 12.712C88.1 20.267 73.884.88 56.385.88c-18.827 0-32.601 19.034-32.752 19.238" id="Fill-3" fill="#fff"/><path d="M88.24 64.763c-.104.127-12.403 12.359-33.031 12.359-19.715 0-31.461-12.58-31.577-12.714.152.197 14.36 19.592 31.86 19.592 18.843 0 32.616-19.037 32.749-19.237" id="Fill-5" fill="#fff"/><g id="Group-9"><mask id="mask-2" fill="#fff"><use xlink:href="#path-1"/></mask><path d="M19.073 39.936c-.22-3.479-1.83-6.478-5.845-6.478-4.016 0-6.05 2.782-6.371 6.478h12.216zm4.815 14.946c-2.62 1.444-5.625 2.193-9.483 2.193C5.302 57.075 0 51.829 0 42.774c0-7.982 4.23-14.567 12.802-14.567 10.225 0 13.122 7.012 13.122 16.652H6.856c.322 4.451 3.429 6.97 7.879 6.97 3.477 0 6.476-1.29 9.153-2.785v5.838z" id="Fill-7" fill="#fff" mask="url(#mask-2)"/></g><path d="M131.23 28.805l-6.638 20.092h-.11l-6.856-20.092h-7.71l.67 1.816c-1.516-1.508-3.662-2.387-6.514-2.387-3.748 0-6.8 1.233-9.053 4.396h-.105v-3.754h-6.806v27.59h7.18V42.961c0-3.53 1.124-9.156 6.32-9.156 4.605 0 4.661 4.552 4.661 7.927v14.732h7.18v-17.41c0-.269-.014-.528-.026-.786l6.722 18.123h8.087l10.177-27.586h-7.18z" id="Fill-10" fill="#fff"/><mask id="mask-4" fill="#fff"><use xlink:href="#path-3"/></mask><path d="M148.028 28.743h.598v27.63h-.598v-27.63z" id="Fill-12" fill="#fff" mask="url(#mask-4)"/><path d="M160.91 28.771h7.355v.865h-6.34v3.849h5.937v.865h-5.936v4.207h6.414v.863h-7.43V28.771z" id="Fill-14" fill="#fff" mask="url(#mask-4)"/><path d="M171.455 31.725h1.566v.79h-1.566v5.192c0 .61.088.969.76 1.014.268 0 .538-.015.805-.045v.807c-.282 0-.55.03-.834.03-1.253 0-1.686-.42-1.671-1.731v-5.265h-1.343v-.791h1.343v-2.312h.939v2.31z" id="Fill-15" fill="#fff" mask="url(#mask-4)"/><path d="M179.91 35.215h-.03c-.118.226-.535.298-.792.343-1.596.283-3.579.27-3.579 1.774 0 .939.835 1.522 1.714 1.522 1.432 0 2.7-.91 2.686-2.416v-1.223h.001zm-5.014-1.135c.091-1.803 1.357-2.58 3.118-2.58 1.357 0 2.835.419 2.835 2.477v4.088c0 .357.18.565.553.565a.87.87 0 0 0 .297-.06v.79a2.564 2.564 0 0 1-.613.062c-.955 0-1.102-.537-1.102-1.344h-.03c-.657 1-1.327 1.568-2.803 1.568-1.418 0-2.583-.702-2.583-2.253 0-2.163 2.104-2.237 4.134-2.476.775-.09 1.208-.196 1.208-1.044 0-1.27-.91-1.583-2.015-1.583-1.16 0-2.027.538-2.057 1.79h-.942z" id="Fill-16" fill="#fff" mask="url(#mask-4)"/><path d="M187.072 32.291c-1.998 0-2.7 1.686-2.7 3.283 0 1.596.702 3.281 2.7 3.281 1.79 0 2.52-1.685 2.52-3.281 0-1.597-.73-3.283-2.52-3.283zm-3.64-3.521h.939v4.417h.029c.403-1.105 1.522-1.687 2.67-1.687 2.34 0 3.46 1.895 3.46 4.074 0 2.176-1.12 4.072-3.46 4.072-1.238 0-2.312-.641-2.745-1.686h-.03v1.463h-.865V28.77h.002z" id="Fill-17" fill="#fff" mask="url(#mask-4)"/><path d="M192.667 28.772h.939v10.65h-.939v-10.65z" id="Fill-18" fill="#fff" mask="url(#mask-4)"/><path d="M196.041 31.725h.939v7.697h-.939v-7.697zm0-2.953h.939v1.506h-.939v-1.506z" id="Fill-19" fill="#fff" mask="url(#mask-4)"/><path d="M204.007 33.977c-.046-1.165-.942-1.686-2.016-1.686-.836 0-1.818.329-1.818 1.329 0 .833.955 1.133 1.594 1.297l1.255.283c1.074.164 2.193.79 2.193 2.132 0 1.672-1.656 2.314-3.09 2.314-1.788 0-3.012-.836-3.16-2.716h.94c.075 1.268 1.015 1.924 2.267 1.924.88 0 2.102-.387 2.102-1.461 0-.896-.834-1.193-1.685-1.402l-1.207-.268c-1.224-.33-2.148-.747-2.148-2.06 0-1.564 1.535-2.162 2.892-2.162 1.538 0 2.759.806 2.82 2.476h-.94z" id="Fill-20" fill="#fff" mask="url(#mask-4)"/><path d="M211.904 33.977c-.044-1.165-.94-1.686-2.015-1.686-.836 0-1.82.329-1.82 1.329 0 .833.956 1.133 1.597 1.297l1.255.283c1.073.164 2.192.79 2.192 2.132 0 1.672-1.656 2.314-3.09 2.314-1.79 0-3.012-.836-3.16-2.716h.94c.076 1.268 1.014 1.924 2.267 1.924.88 0 2.103-.387 2.103-1.461 0-.896-.836-1.193-1.686-1.402l-1.207-.268c-1.224-.33-2.15-.747-2.15-2.06 0-1.564 1.537-2.162 2.894-2.162 1.539 0 2.76.806 2.819 2.476h-.94z" id="Fill-21" fill="#fff" mask="url(#mask-4)"/><path d="M220.647 35.036c-.044-1.417-.924-2.746-2.446-2.746-1.535 0-2.387 1.344-2.536 2.746h4.982zm-4.982.792c.016 1.37.73 3.026 2.536 3.026 1.371 0 2.119-.805 2.416-1.968h.94c-.403 1.744-1.416 2.76-3.356 2.76-2.448 0-3.475-1.881-3.475-4.073 0-2.031 1.026-4.074 3.475-4.074 2.476 0 3.46 2.163 3.385 4.328h-5.922z" id="Fill-22" fill="#fff" mask="url(#mask-4)"/><path d="M223.588 31.725h.865v1.296h.046c.492-.923 1.297-1.52 2.52-1.52 1.012 0 1.924.49 2.209 1.507.46-1.016 1.43-1.507 2.445-1.507 1.687 0 2.552.878 2.552 2.699v5.222h-.94v-5.176c0-1.27-.478-1.955-1.82-1.955-1.625 0-2.087 1.343-2.087 2.776v4.356h-.94V34.2c.013-1.043-.418-1.908-1.613-1.908-1.625 0-2.28 1.222-2.297 2.835v4.297h-.94v-7.7z" id="Fill-23" fill="#fff" mask="url(#mask-4)"/><path d="M242.216 35.036c-.046-1.417-.924-2.746-2.446-2.746-1.537 0-2.387 1.344-2.535 2.746h4.981zm-4.982.792c.016 1.37.731 3.026 2.535 3.026 1.372 0 2.12-.805 2.417-1.968h.94c-.404 1.744-1.417 2.76-3.357 2.76-2.447 0-3.476-1.881-3.476-4.073 0-2.031 1.03-4.074 3.476-4.074 2.475 0 3.46 2.163 3.386 4.328h-5.92z" id="Fill-24" fill="#fff" mask="url(#mask-4)"/><path d="M245.15 31.725h.94v1.326h.03c.343-.924 1.372-1.55 2.462-1.55 2.163 0 2.82 1.133 2.82 2.968v4.953h-.94v-4.803c0-1.33-.432-2.33-1.956-2.33-1.492 0-2.386 1.136-2.416 2.64v4.492h-.94v-7.696z" id="Fill-25" fill="#fff" mask="url(#mask-4)"/><path d="M255.208 31.725h1.566v.79h-1.566v5.192c0 .61.089.969.76 1.014.27 0 .537-.015.804-.045v.807c-.281 0-.55.03-.833.03-1.254 0-1.686-.42-1.671-1.731v-5.265h-1.341v-.791h1.34v-2.312h.94v2.31z" id="Fill-26" fill="#fff" mask="url(#mask-4)"/><path d="M263.236 33.977c-.046-1.165-.94-1.686-2.015-1.686-.836 0-1.82.329-1.82 1.329 0 .833.956 1.133 1.595 1.297l1.255.283c1.074.164 2.193.79 2.193 2.132 0 1.672-1.656 2.314-3.088 2.314-1.79 0-3.014-.836-3.161-2.716h.939c.076 1.268 1.014 1.924 2.267 1.924.88 0 2.104-.387 2.104-1.461 0-.896-.834-1.193-1.686-1.402l-1.207-.268c-1.226-.33-2.148-.747-2.148-2.06 0-1.564 1.537-2.162 2.894-2.162 1.536 0 2.757.806 2.819 2.476h-.941z" id="Fill-27" fill="#fff" mask="url(#mask-4)"/><path d="M271.323 28.771h1.015v4.624h6.322v-4.624h1.015V39.42h-1.015v-5.159h-6.322v5.159h-1.015V28.771z" id="Fill-28" fill="#fff" mask="url(#mask-4)"/><path d="M282.853 35.574c0 1.64.896 3.28 2.7 3.28 1.804 0 2.699-1.64 2.699-3.28 0-1.642-.895-3.284-2.699-3.284-1.804 0-2.7 1.642-2.7 3.284m6.34 0c0 2.209-1.282 4.073-3.639 4.073-2.357 0-3.638-1.864-3.638-4.073 0-2.207 1.281-4.073 3.638-4.073s3.639 1.866 3.639 4.073" id="Fill-29" fill="#fff" mask="url(#mask-4)"/><path d="M295.842 33.977c-.046-1.165-.94-1.686-2.016-1.686-.836 0-1.818.329-1.818 1.329 0 .833.955 1.133 1.594 1.297l1.255.283c1.074.164 2.193.79 2.193 2.132 0 1.672-1.656 2.314-3.09 2.314-1.79 0-3.012-.836-3.16-2.716h.939c.076 1.268 1.015 1.924 2.267 1.924.879 0 2.102-.387 2.102-1.461 0-.896-.834-1.193-1.685-1.402l-1.208-.268c-1.224-.33-2.148-.747-2.148-2.06 0-1.564 1.536-2.162 2.893-2.162 1.537 0 2.759.806 2.82 2.476h-.938z" id="Fill-30" fill="#fff" mask="url(#mask-4)"/><path d="M302.723 32.291c-2.074 0-2.7 1.536-2.7 3.283 0 1.596.702 3.281 2.7 3.281 1.79 0 2.52-1.685 2.52-3.281.002-1.597-.728-3.283-2.52-3.283zm-3.64-.568h.866v1.464h.03c.43-1.043 1.507-1.687 2.745-1.687 2.34 0 3.46 1.895 3.46 4.074 0 2.176-1.12 4.072-3.46 4.072-1.147 0-2.268-.582-2.67-1.686h-.03v4.311h-.938V31.723h-.002z" id="Fill-31" fill="#fff" mask="url(#mask-4)"/><path d="M308.319 31.725h.939v7.697h-.939v-7.697zm0-2.953h.939v1.506h-.939v-1.506z" id="Fill-32" fill="#fff" mask="url(#mask-4)"/><path d="M313.21 31.725h1.566v.79h-1.566v5.192c0 .61.09.969.762 1.014.268 0 .537-.015.804-.045v.807c-.282 0-.55.03-.834.03-1.253 0-1.686-.42-1.67-1.731v-5.265h-1.342v-.791h1.341v-2.312h.94v2.31z" id="Fill-33" fill="#fff" mask="url(#mask-4)"/><path d="M321.665 35.215h-.03c-.117.226-.534.298-.79.343-1.597.283-3.58.27-3.58 1.774 0 .939.835 1.522 1.715 1.522 1.43 0 2.698-.91 2.684-2.416v-1.223zm-5.013-1.135c.09-1.803 1.358-2.58 3.118-2.58 1.358 0 2.835.419 2.835 2.477v4.088c0 .357.18.565.555.565.104 0 .222-.03.297-.06v.79a2.57 2.57 0 0 1-.613.062c-.955 0-1.102-.537-1.102-1.344h-.031c-.655 1-1.327 1.568-2.803 1.568-1.418 0-2.582-.702-2.582-2.253 0-2.163 2.104-2.237 4.132-2.476.775-.09 1.208-.196 1.208-1.044 0-1.27-.911-1.583-2.014-1.583-1.162 0-2.027.538-2.058 1.79h-.942z" id="Fill-34" fill="#fff" mask="url(#mask-4)"/><path d="M325.187 28.772h.939v10.65h-.939v-10.65z" id="Fill-35" fill="#fff" mask="url(#mask-4)"/><path d="M328.56 31.725h.94v7.697h-.94v-7.697zm0-2.953h.94v1.506h-.94v-1.506z" id="Fill-36" fill="#fff" mask="url(#mask-4)"/><path d="M337.502 35.036c-.044-1.417-.923-2.746-2.446-2.746-1.536 0-2.385 1.344-2.535 2.746h4.981zm-4.982.792c.014 1.37.731 3.026 2.535 3.026 1.372 0 2.12-.805 2.418-1.968h.937c-.403 1.744-1.415 2.76-3.355 2.76-2.448 0-3.476-1.881-3.476-4.073 0-2.031 1.028-4.074 3.476-4.074 2.475 0 3.461 2.163 3.387 4.328h-5.922z" id="Fill-37" fill="#fff" mask="url(#mask-4)"/><path d="M340.447 31.725h.862v1.805h.03c.479-1.24 1.522-1.97 2.91-1.91v.94c-1.703-.09-2.865 1.163-2.865 2.759v4.103h-.937v-7.697z" id="Fill-38" fill="#fff" mask="url(#mask-4)"/><path d="M350.463 33.977c-.047-1.165-.943-1.686-2.016-1.686-.835 0-1.82.329-1.82 1.329 0 .833.955 1.133 1.596 1.297l1.255.283c1.072.164 2.192.79 2.192 2.132 0 1.672-1.658 2.314-3.088 2.314-1.789 0-3.014-.836-3.162-2.716h.94c.074 1.268 1.012 1.924 2.267 1.924.88 0 2.103-.387 2.103-1.461 0-.896-.835-1.193-1.687-1.402l-1.207-.268c-1.223-.33-2.148-.747-2.148-2.06 0-1.564 1.537-2.162 2.894-2.162 1.537 0 2.756.806 2.82 2.476h-.939z" id="Fill-39" fill="#fff" mask="url(#mask-4)"/><path d="M163.864 55.762c2 0 2.699-1.685 2.699-3.282 0-1.598-.7-3.283-2.7-3.283-1.791 0-2.52 1.685-2.52 3.283 0 1.597.729 3.282 2.52 3.282zm3.64.567h-.865v-1.462h-.031c-.402.999-1.625 1.687-2.743 1.687-2.342 0-3.462-1.896-3.462-4.074 0-2.176 1.12-4.072 3.462-4.072 1.147 0 2.266.58 2.67 1.685h.029v-4.415h.942v10.65h-.002z" id="Fill-40" fill="#fff" mask="url(#mask-4)"/><path d="M175.804 56.329h-.866v-1.387h-.03c-.492 1.028-1.507 1.61-2.656 1.61-1.94 0-2.7-1.135-2.7-2.924V48.63h.94v5.01c.046 1.389.567 2.119 2.057 2.119 1.612 0 2.314-1.52 2.314-3.087V48.63h.94v7.698h.001z" id="Fill-41" fill="#fff" mask="url(#mask-4)"/><path d="M182.337 45.677h1.135l6.203 9.01h.031v-9.01h1.013v10.652h-1.133l-6.205-9.01h-.029v9.01h-1.015V45.677z" id="Fill-42" fill="#fff" mask="url(#mask-4)"/><path d="M193.518 52.48c0 1.642.896 3.282 2.698 3.282 1.806 0 2.701-1.64 2.701-3.282 0-1.641-.895-3.283-2.7-3.283-1.803 0-2.699 1.642-2.699 3.282m6.34 0c0 2.209-1.282 4.075-3.64 4.075-2.357 0-3.639-1.867-3.639-4.075 0-2.206 1.282-4.072 3.64-4.072 2.356 0 3.64 1.866 3.64 4.073" id="Fill-43" fill="#fff" mask="url(#mask-4)"/><path d="M201.543 48.63h.864v1.805h.029c.478-1.239 1.523-1.97 2.909-1.909v.94c-1.701-.09-2.864 1.162-2.864 2.76v4.102h-.939V48.63h.001z" id="Fill-44" fill="#fff" mask="url(#mask-4)"/><path d="M209.493 55.762c2 0 2.698-1.685 2.698-3.282 0-1.598-.7-3.283-2.698-3.283-1.792 0-2.521 1.685-2.521 3.283 0 1.597.729 3.282 2.52 3.282zm3.64.567h-.865v-1.462h-.031c-.402.999-1.624 1.687-2.744 1.687-2.342 0-3.462-1.896-3.462-4.074 0-2.176 1.12-4.072 3.462-4.072 1.147 0 2.266.58 2.67 1.685h.028v-4.415h.94v10.65h.002z" id="Fill-45" fill="#fff" mask="url(#mask-4)"/><path d="M218.518 45.677h1.09l3.46 9.532h.028l3.434-9.532h1.073l-3.954 10.652h-1.178l-3.953-10.652z" id="Fill-46" fill="#fff" mask="url(#mask-4)"/><path d="M232.928 52.12h-.028c-.119.226-.538.3-.792.345-1.597.282-3.579.268-3.579 1.775 0 .937.835 1.52 1.714 1.52 1.432 0 2.7-.908 2.685-2.415V52.12zm-5.01-1.131c.09-1.805 1.355-2.58 3.117-2.58 1.356 0 2.835.417 2.835 2.475v4.089c0 .356.178.565.552.565a.862.862 0 0 0 .298-.06v.79c-.209.045-.36.06-.612.06-.956 0-1.104-.536-1.104-1.341h-.03c-.655.999-1.326 1.567-2.804 1.567-1.418 0-2.579-.703-2.579-2.253 0-2.163 2.102-2.238 4.132-2.476.775-.09 1.208-.195 1.208-1.045 0-1.268-.912-1.581-2.015-1.581-1.163 0-2.026.536-2.058 1.79h-.94z" id="Fill-47" fill="#fff" mask="url(#mask-4)"/><path d="M242.223 56.329h-.865v-1.387h-.03c-.492 1.028-1.505 1.61-2.655 1.61-1.94 0-2.7-1.135-2.7-2.924V48.63h.94v5.01c.047 1.389.57 2.119 2.06 2.119 1.611 0 2.313-1.52 2.313-3.087V48.63h.938v7.698z" id="Fill-48" fill="#fff" mask="url(#mask-4)"/><path d="M247.414 55.762c1.998 0 2.698-1.685 2.698-3.282 0-1.598-.698-3.283-2.698-3.283-1.792 0-2.521 1.685-2.521 3.283 0 1.597.729 3.282 2.52 3.282zm3.639.567h-.865v-1.462h-.031c-.402.999-1.626 1.687-2.744 1.687-2.341 0-3.461-1.896-3.461-4.074 0-2.176 1.12-4.072 3.46-4.072 1.148 0 2.266.58 2.67 1.685h.029v-4.415h.942v10.65z" id="Fill-49" fill="#fff" mask="url(#mask-4)"/><path d="M253.676 52.48c0 1.642.896 3.282 2.7 3.282 1.804 0 2.7-1.64 2.7-3.282 0-1.641-.896-3.283-2.7-3.283-1.804 0-2.7 1.642-2.7 3.282m6.34 0c0 2.209-1.28 4.075-3.639 4.075-2.357 0-3.638-1.867-3.638-4.075 0-2.206 1.281-4.072 3.638-4.072 2.358 0 3.64 1.866 3.64 4.073" id="Fill-50" fill="#fff" mask="url(#mask-4)"/><path d="M261.725 48.63h.94v7.698h-.94V48.63zm0-2.953h.94v1.507h-.94v-1.507z" id="Fill-51" fill="#fff" mask="url(#mask-4)"/><path d="M269.322 50.882c-.046-1.163-.94-1.685-2.014-1.685-.837 0-1.82.329-1.82 1.328 0 .834.955 1.133 1.595 1.299l1.253.28c1.075.165 2.192.794 2.192 2.135 0 1.67-1.654 2.314-3.088 2.314-1.79 0-3.013-.838-3.161-2.716h.94c.074 1.267 1.015 1.924 2.267 1.924.879 0 2.102-.387 2.102-1.462 0-.895-.834-1.193-1.684-1.401l-1.207-.27c-1.224-.328-2.15-.746-2.15-2.058 0-1.564 1.537-2.163 2.894-2.163 1.538 0 2.759.806 2.82 2.475h-.94z" id="Fill-52" fill="#fff" mask="url(#mask-4)"/></g></g></svg>