<svg viewBox="0 0 139 84" xmlns="http://www.w3.org/2000/svg" xmlns:xlink="http://www.w3.org/1999/xlink"><title>logo_eHnv_redux</title><defs><path id="path-1" d="M0 .879h138.409V84H0V.879z"/></defs><g id="Page-1" fill="none" fill-rule="evenodd"><g id="logo_eHnv_redux"><path d="M71.997 20.762h-6.661c-.967 0-1.762.796-1.762 1.771l-.003 14.94H48.895l-.011-14.94c0-.975-.795-1.77-1.761-1.77H40.46c-.981 0-1.773.795-1.773 1.77v39.725c0 .976.792 1.771 1.773 1.771h6.663c.966 0 1.76-.797 1.76-1.77l.012-16.376H63.57l.003 16.375c0 .974.795 1.771 1.762 1.771h6.66c.974 0 1.767-.797 1.767-1.769V22.533c0-.975-.793-1.77-1.766-1.77" id="Fill-1" fill="#0080A6"/><path d="M23.633 20.117c.116-.129 12.409-12.36 33.04-12.36 19.706 0 31.467 12.58 31.568 12.712C88.1 20.267 73.884.88 56.385.88c-18.827 0-32.601 19.034-32.752 19.238" id="Fill-3" fill="#0080A6"/><path d="M88.24 64.763c-.104.127-12.403 12.359-33.031 12.359-19.715 0-31.461-12.58-31.577-12.714.152.197 14.36 19.592 31.86 19.592 18.843 0 32.616-19.037 32.749-19.237" id="Fill-5" fill="#0080A6"/><g id="Group-9"><mask id="mask-2" fill="#fff"><use xlink:href="#path-1"/></mask><path d="M19.073 39.936c-.22-3.479-1.83-6.478-5.845-6.478-4.016 0-6.05 2.782-6.371 6.478h12.216zm4.815 14.946c-2.62 1.444-5.625 2.193-9.483 2.193C5.302 57.075 0 51.829 0 42.774c0-7.982 4.23-14.567 12.802-14.567 10.225 0 13.122 7.012 13.122 16.652H6.856c.322 4.451 3.429 6.97 7.879 6.97 3.477 0 6.476-1.29 9.153-2.785v5.838z" id="Fill-7" fill="#706F6F" mask="url(#mask-2)"/></g><path d="M131.23 28.805l-6.638 20.092h-.11l-6.856-20.092h-7.71l.67 1.816c-1.516-1.508-3.662-2.387-6.514-2.387-3.748 0-6.8 1.233-9.053 4.396h-.105v-3.754h-6.806v27.59h7.18V42.961c0-3.53 1.124-9.156 6.32-9.156 4.605 0 4.661 4.552 4.661 7.927v14.732h7.18v-17.41c0-.269-.014-.528-.026-.786l6.722 18.123h8.087l10.177-27.586h-7.18z" id="Fill-10" fill="#706F6F"/></g></g></svg>