<?xml version="1.0" encoding="UTF-8" standalone="no"?>
<svg width="352px" height="84px" viewBox="0 0 352 84" version="1.1" xmlns="http://www.w3.org/2000/svg" xmlns:xlink="http://www.w3.org/1999/xlink" xmlns:sketch="http://www.bohemiancoding.com/sketch/ns">
    <!-- Generator: Sketch 3.5.1 (25234) - http://www.bohemiancoding.com/sketch -->
    <title>logo_eHnv_full</title>
    <desc>Created with Sketch.</desc>
    <defs>
        <path id="path-1" d="M0,0.879 L351.67,0.879 L351.67,84 L0,84 L0,0.879 Z"></path>
        <path id="path-3" d="M0,0.879 L351.67,0.879 L351.67,84 L0,84 L0,0.879 Z"></path>
    </defs>
    <g id="Page-1" stroke="none" stroke-width="1" fill="none" fill-rule="evenodd" sketch:type="MSPage">
        <g id="logo_eHnv_full" sketch:type="MSLayerGroup">
            <path d="M71.9966,20.7622 L65.3356,20.7622 C64.3686,20.7622 63.5736,21.5582 63.5736,22.5332 L63.5706,37.4732 L48.8946,37.4732 L48.8836,22.5332 C48.8836,21.5582 48.0886,20.7622 47.1226,20.7622 L40.4596,20.7622 C39.4786,20.7622 38.6866,21.5582 38.6866,22.5332 L38.6866,62.2582 C38.6866,63.2342 39.4786,64.0292 40.4596,64.0292 L47.1226,64.0292 C48.0886,64.0292 48.8836,63.2322 48.8836,62.2582 L48.8946,45.8832 L63.5706,45.8832 L63.5736,62.2582 C63.5736,63.2322 64.3686,64.0292 65.3356,64.0292 L71.9966,64.0292 C72.9696,64.0292 73.7626,63.2322 73.7626,62.2602 L73.7626,22.5332 C73.7626,21.5582 72.9696,20.7622 71.9966,20.7622" id="Fill-1" fill="#0080A6" sketch:type="MSShapeGroup"></path>
            <path d="M23.6328,20.1172 C23.7488,19.9882 36.0418,7.7562 56.6728,7.7562 C76.3788,7.7562 88.1398,20.3362 88.2408,20.4692 C88.1008,20.2672 73.8838,0.8792 56.3848,0.8792 C37.5578,0.8792 23.7838,19.9132 23.6328,20.1172" id="Fill-3" fill="#0080A6" sketch:type="MSShapeGroup"></path>
            <path d="M88.2407,64.7627 C88.1357,64.8897 75.8367,77.1217 55.2087,77.1217 C35.4937,77.1227 23.7477,64.5417 23.6317,64.4077 C23.7837,64.6047 37.9917,83.9997 55.4917,83.9997 C74.3347,83.9997 88.1077,64.9627 88.2407,64.7627" id="Fill-5" fill="#0080A6" sketch:type="MSShapeGroup"></path>
            <g id="Group-9">
                <mask id="mask-2" sketch:name="Clip 8" fill="white">
                    <use xlink:href="#path-1"></use>
                </mask>
                <g id="Clip-8"></g>
                <path d="M19.0728,39.936 C18.8538,36.457 17.2438,33.458 13.2278,33.458 C9.2118,33.458 7.1788,36.24 6.8568,39.936 L19.0728,39.936 Z M23.8878,54.882 C21.2678,56.326 18.2628,57.075 14.4048,57.075 C5.3018,57.075 -0.0002,51.829 -0.0002,42.774 C-0.0002,34.792 4.2298,28.207 12.8018,28.207 C23.0268,28.207 25.9238,35.219 25.9238,44.859 L6.8558,44.859 C7.1778,49.31 10.2848,51.829 14.7348,51.829 C18.2118,51.829 21.2108,50.539 23.8878,49.044 L23.8878,54.882 Z" id="Fill-7" fill="#706F6F" sketch:type="MSShapeGroup" mask="url(#mask-2)"></path>
            </g>
            <path d="M131.2295,28.8052 L124.5915,48.8972 L124.4815,48.8972 L117.6255,28.8052 L109.9155,28.8052 L110.5865,30.6212 C109.0695,29.1132 106.9245,28.2342 104.0715,28.2342 C100.3245,28.2342 97.2725,29.4672 95.0195,32.6302 L94.9145,32.6302 L94.9145,28.8762 L88.1075,28.8762 L88.1075,56.4652 L95.2875,56.4652 L95.2875,42.9622 C95.2875,39.4312 96.4115,33.8062 101.6085,33.8062 C106.2125,33.8062 106.2695,38.3582 106.2695,41.7332 L106.2695,56.4652 L113.4495,56.4652 L113.4495,39.0552 C113.4495,38.7862 113.4345,38.5272 113.4225,38.2692 L120.1455,56.3922 L128.2325,56.3922 L138.4085,28.8062 L131.2295,28.8062 L131.2295,28.8052 Z" id="Fill-10" fill="#706F6F" sketch:type="MSShapeGroup"></path>
            <mask id="mask-4" sketch:name="Clip 13" fill="white">
                <use xlink:href="#path-3"></use>
            </mask>
            <g id="Clip-13"></g>
            <path d="M148.028,28.743 L148.626,28.743 L148.626,56.373 L148.028,56.373 L148.028,28.743 Z" id="Fill-12" fill="#706F6F" sketch:type="MSShapeGroup" mask="url(#mask-4)"></path>
            <path d="M160.9106,28.771 L168.2646,28.771 L168.2646,29.636 L161.9256,29.636 L161.9256,33.485 L167.8616,33.485 L167.8616,34.35 L161.9256,34.35 L161.9256,38.557 L168.3396,38.557 L168.3396,39.42 L160.9106,39.42 L160.9106,28.771 Z" id="Fill-14" fill="#0080A6" sketch:type="MSShapeGroup" mask="url(#mask-4)"></path>
            <path d="M171.4546,31.7246 L173.0206,31.7246 L173.0206,32.5156 L171.4546,32.5156 L171.4546,37.7066 C171.4546,38.3166 171.5426,38.6756 172.2156,38.7206 C172.4826,38.7206 172.7526,38.7056 173.0196,38.6756 L173.0196,39.4826 C172.7376,39.4826 172.4696,39.5126 172.1856,39.5126 C170.9326,39.5126 170.4996,39.0936 170.5146,37.7816 L170.5146,32.5166 L169.1716,32.5166 L169.1716,31.7256 L170.5146,31.7256 L170.5146,29.4136 L171.4536,29.4136 L171.4536,31.7246 L171.4546,31.7246 Z" id="Fill-15" fill="#0080A6" sketch:type="MSShapeGroup" mask="url(#mask-4)"></path>
            <path d="M179.9102,35.2148 L179.8802,35.2148 C179.7622,35.4408 179.3452,35.5128 179.0882,35.5578 C177.4922,35.8408 175.5092,35.8278 175.5092,37.3318 C175.5092,38.2708 176.3442,38.8538 177.2232,38.8538 C178.6552,38.8538 179.9232,37.9448 179.9092,36.4378 L179.9092,35.2148 L179.9102,35.2148 Z M174.8962,34.0798 C174.9872,32.2768 176.2532,31.5008 178.0142,31.5008 C179.3712,31.5008 180.8492,31.9188 180.8492,33.9768 L180.8492,38.0648 C180.8492,38.4218 181.0292,38.6298 181.4022,38.6298 C181.5062,38.6298 181.6252,38.5998 181.6992,38.5698 L181.6992,39.3598 C181.4902,39.4048 181.3412,39.4218 181.0862,39.4218 C180.1312,39.4218 179.9842,38.8848 179.9842,38.0778 L179.9532,38.0778 C179.2972,39.0778 178.6272,39.6458 177.1512,39.6458 C175.7332,39.6458 174.5682,38.9438 174.5682,37.3928 C174.5682,35.2298 176.6722,35.1558 178.7022,34.9168 C179.4772,34.8278 179.9102,34.7208 179.9102,33.8728 C179.9102,32.6038 178.9992,32.2898 177.8952,32.2898 C176.7342,32.2898 175.8682,32.8278 175.8382,34.0798 L174.8962,34.0798 Z" id="Fill-16" fill="#0080A6" sketch:type="MSShapeGroup" mask="url(#mask-4)"></path>
            <path d="M187.0718,32.291 C185.0738,32.291 184.3718,33.977 184.3718,35.574 C184.3718,37.17 185.0738,38.855 187.0718,38.855 C188.8618,38.855 189.5928,37.17 189.5928,35.574 C189.5918,33.977 188.8618,32.291 187.0718,32.291 L187.0718,32.291 Z M183.4318,28.77 L184.3708,28.77 L184.3708,33.187 L184.3998,33.187 C184.8028,32.082 185.9218,31.5 187.0708,31.5 C189.4108,31.5 190.5298,33.395 190.5298,35.574 C190.5298,37.75 189.4108,39.646 187.0708,39.646 C185.8318,39.646 184.7578,39.005 184.3248,37.96 L184.2948,37.96 L184.2948,39.423 L183.4298,39.423 L183.4298,28.77 L183.4318,28.77 Z" id="Fill-17" fill="#0080A6" sketch:type="MSShapeGroup" mask="url(#mask-4)"></path>
            <path d="M192.667,28.772 L193.606,28.772 L193.606,39.422 L192.667,39.422 L192.667,28.772 Z" id="Fill-18" fill="#0080A6" sketch:type="MSShapeGroup" mask="url(#mask-4)"></path>
            <path d="M196.041,31.725 L196.98,31.725 L196.98,39.422 L196.041,39.422 L196.041,31.725 Z M196.041,28.772 L196.98,28.772 L196.98,30.278 L196.041,30.278 L196.041,28.772 Z" id="Fill-19" fill="#0080A6" sketch:type="MSShapeGroup" mask="url(#mask-4)"></path>
            <path d="M204.0068,33.9766 C203.9608,32.8116 203.0648,32.2906 201.9908,32.2906 C201.1548,32.2906 200.1728,32.6196 200.1728,33.6196 C200.1728,34.4526 201.1278,34.7526 201.7668,34.9166 L203.0218,35.1996 C204.0958,35.3636 205.2148,35.9906 205.2148,37.3316 C205.2148,39.0036 203.5588,39.6456 202.1258,39.6456 C200.3368,39.6456 199.1128,38.8096 198.9648,36.9296 L199.9048,36.9296 C199.9798,38.1976 200.9198,38.8536 202.1718,38.8536 C203.0528,38.8536 204.2738,38.4666 204.2738,37.3926 C204.2738,36.4966 203.4398,36.1996 202.5888,35.9906 L201.3818,35.7226 C200.1578,35.3936 199.2338,34.9756 199.2338,33.6636 C199.2338,32.0986 200.7688,31.5006 202.1258,31.5006 C203.6638,31.5006 204.8848,32.3066 204.9468,33.9766 L204.0068,33.9766 Z" id="Fill-20" fill="#0080A6" sketch:type="MSShapeGroup" mask="url(#mask-4)"></path>
            <path d="M211.9038,33.9766 C211.8598,32.8116 210.9638,32.2906 209.8888,32.2906 C209.0528,32.2906 208.0698,32.6196 208.0698,33.6196 C208.0698,34.4526 209.0248,34.7526 209.6658,34.9166 L210.9208,35.1996 C211.9938,35.3636 213.1128,35.9906 213.1128,37.3316 C213.1128,39.0036 211.4568,39.6456 210.0238,39.6456 C208.2338,39.6456 207.0108,38.8096 206.8628,36.9296 L207.8028,36.9296 C207.8788,38.1976 208.8168,38.8536 210.0698,38.8536 C210.9498,38.8536 212.1728,38.4666 212.1728,37.3926 C212.1728,36.4966 211.3368,36.1996 210.4868,35.9906 L209.2798,35.7226 C208.0558,35.3936 207.1308,34.9756 207.1308,33.6636 C207.1308,32.0986 208.6668,31.5006 210.0238,31.5006 C211.5628,31.5006 212.7838,32.3066 212.8428,33.9766 L211.9038,33.9766 Z" id="Fill-21" fill="#0080A6" sketch:type="MSShapeGroup" mask="url(#mask-4)"></path>
            <path d="M220.6465,35.0356 C220.6025,33.6186 219.7225,32.2896 218.2005,32.2896 C216.6655,32.2896 215.8135,33.6336 215.6645,35.0356 L220.6465,35.0356 Z M215.6645,35.8276 C215.6805,37.1986 216.3955,38.8536 218.2005,38.8536 C219.5725,38.8536 220.3195,38.0486 220.6165,36.8856 L221.5575,36.8856 C221.1535,38.6296 220.1405,39.6456 218.2005,39.6456 C215.7525,39.6456 214.7255,37.7646 214.7255,35.5726 C214.7255,33.5416 215.7525,31.4986 218.2005,31.4986 C220.6765,31.4986 221.6615,33.6616 221.5855,35.8266 L215.6645,35.8266 L215.6645,35.8276 Z" id="Fill-22" fill="#0080A6" sketch:type="MSShapeGroup" mask="url(#mask-4)"></path>
            <path d="M223.5879,31.7246 L224.4529,31.7246 L224.4529,33.0206 L224.4989,33.0206 C224.9909,32.0976 225.7959,31.5006 227.0189,31.5006 C228.0309,31.5006 228.9429,31.9916 229.2279,33.0076 C229.6879,31.9916 230.6589,31.5006 231.6729,31.5006 C233.3599,31.5006 234.2249,32.3786 234.2249,34.1996 L234.2249,39.4216 L233.2859,39.4216 L233.2859,34.2456 C233.2859,32.9766 232.8069,32.2906 231.4659,32.2906 C229.8399,32.2906 229.3779,33.6336 229.3779,35.0666 L229.3779,39.4226 L228.4379,39.4226 L228.4379,34.2006 C228.4509,33.1576 228.0199,32.2926 226.8249,32.2926 C225.1999,32.2926 224.5449,33.5146 224.5279,35.1276 L224.5279,39.4246 L223.5889,39.4246 L223.5889,31.7246 L223.5879,31.7246 Z" id="Fill-23" fill="#0080A6" sketch:type="MSShapeGroup" mask="url(#mask-4)"></path>
            <path d="M242.2163,35.0356 C242.1703,33.6186 241.2923,32.2896 239.7703,32.2896 C238.2333,32.2896 237.3833,33.6336 237.2353,35.0356 L242.2163,35.0356 Z M237.2343,35.8276 C237.2503,37.1986 237.9653,38.8536 239.7693,38.8536 C241.1413,38.8536 241.8883,38.0486 242.1863,36.8856 L243.1253,36.8856 C242.7223,38.6296 241.7093,39.6456 239.7693,39.6456 C237.3223,39.6456 236.2933,37.7646 236.2933,35.5726 C236.2933,33.5416 237.3223,31.4986 239.7693,31.4986 C242.2443,31.4986 243.2293,33.6616 243.1553,35.8266 L237.2343,35.8266 L237.2343,35.8276 Z" id="Fill-24" fill="#0080A6" sketch:type="MSShapeGroup" mask="url(#mask-4)"></path>
            <path d="M245.1509,31.7246 L246.0909,31.7246 L246.0909,33.0506 L246.1199,33.0506 C246.4629,32.1266 247.4919,31.5006 248.5819,31.5006 C250.7449,31.5006 251.4019,32.6336 251.4019,34.4686 L251.4019,39.4216 L250.4619,39.4216 L250.4619,34.6186 C250.4619,33.2896 250.0299,32.2896 248.5059,32.2896 C247.0139,32.2896 246.1199,33.4246 246.0899,34.9296 L246.0899,39.4206 L245.1499,39.4206 L245.1499,31.7246 L245.1509,31.7246 Z" id="Fill-25" fill="#0080A6" sketch:type="MSShapeGroup" mask="url(#mask-4)"></path>
            <path d="M255.2075,31.7246 L256.7735,31.7246 L256.7735,32.5156 L255.2075,32.5156 L255.2075,37.7066 C255.2075,38.3166 255.2965,38.6756 255.9685,38.7206 C256.2375,38.7206 256.5055,38.7056 256.7725,38.6756 L256.7725,39.4826 C256.4905,39.4826 256.2225,39.5126 255.9385,39.5126 C254.6855,39.5126 254.2525,39.0936 254.2675,37.7816 L254.2675,32.5166 L252.9265,32.5166 L252.9265,31.7256 L254.2675,31.7256 L254.2675,29.4136 L255.2065,29.4136 L255.2065,31.7246 L255.2075,31.7246 Z" id="Fill-26" fill="#0080A6" sketch:type="MSShapeGroup" mask="url(#mask-4)"></path>
            <path d="M263.2358,33.9766 C263.1898,32.8116 262.2958,32.2906 261.2208,32.2906 C260.3848,32.2906 259.4018,32.6196 259.4018,33.6196 C259.4018,34.4526 260.3568,34.7526 260.9958,34.9166 L262.2508,35.1996 C263.3248,35.3636 264.4438,35.9906 264.4438,37.3316 C264.4438,39.0036 262.7878,39.6456 261.3558,39.6456 C259.5658,39.6456 258.3418,38.8096 258.1948,36.9296 L259.1338,36.9296 C259.2098,38.1976 260.1478,38.8536 261.4008,38.8536 C262.2818,38.8536 263.5048,38.4666 263.5048,37.3926 C263.5048,36.4966 262.6708,36.1996 261.8188,35.9906 L260.6118,35.7226 C259.3858,35.3936 258.4638,34.9756 258.4638,33.6636 C258.4638,32.0986 260.0008,31.5006 261.3578,31.5006 C262.8938,31.5006 264.1148,32.3066 264.1768,33.9766 L263.2358,33.9766 Z" id="Fill-27" fill="#0080A6" sketch:type="MSShapeGroup" mask="url(#mask-4)"></path>
            <path d="M271.3228,28.771 L272.3378,28.771 L272.3378,33.395 L278.6598,33.395 L278.6598,28.771 L279.6748,28.771 L279.6748,39.42 L278.6598,39.42 L278.6598,34.261 L272.3378,34.261 L272.3378,39.42 L271.3228,39.42 L271.3228,28.771 Z" id="Fill-28" fill="#0080A6" sketch:type="MSShapeGroup" mask="url(#mask-4)"></path>
            <path d="M282.853,35.5737 C282.853,37.2147 283.749,38.8547 285.553,38.8547 C287.357,38.8547 288.252,37.2147 288.252,35.5737 C288.252,33.9317 287.357,32.2897 285.553,32.2897 C283.749,32.2897 282.853,33.9317 282.853,35.5737 M289.193,35.5737 C289.193,37.7827 287.911,39.6467 285.554,39.6467 C283.197,39.6467 281.916,37.7827 281.916,35.5737 C281.916,33.3667 283.197,31.5007 285.554,31.5007 C287.911,31.5007 289.193,33.3667 289.193,35.5737" id="Fill-29" fill="#0080A6" sketch:type="MSShapeGroup" mask="url(#mask-4)"></path>
            <path d="M295.8418,33.9766 C295.7958,32.8116 294.9018,32.2906 293.8258,32.2906 C292.9898,32.2906 292.0078,32.6196 292.0078,33.6196 C292.0078,34.4526 292.9628,34.7526 293.6018,34.9166 L294.8568,35.1996 C295.9308,35.3636 297.0498,35.9906 297.0498,37.3316 C297.0498,39.0036 295.3938,39.6456 293.9608,39.6456 C292.1708,39.6456 290.9478,38.8096 290.7998,36.9296 L291.7388,36.9296 C291.8148,38.1976 292.7538,38.8536 294.0058,38.8536 C294.8848,38.8536 296.1078,38.4666 296.1078,37.3926 C296.1078,36.4966 295.2738,36.1996 294.4228,35.9906 L293.2148,35.7226 C291.9908,35.3936 291.0668,34.9756 291.0668,33.6636 C291.0668,32.0986 292.6028,31.5006 293.9598,31.5006 C295.4968,31.5006 296.7188,32.3066 296.7808,33.9766 L295.8418,33.9766 Z" id="Fill-30" fill="#0080A6" sketch:type="MSShapeGroup" mask="url(#mask-4)"></path>
            <path d="M302.7227,32.291 C300.6487,32.291 300.0227,33.827 300.0227,35.574 C300.0227,37.17 300.7247,38.855 302.7227,38.855 C304.5137,38.855 305.2437,37.17 305.2437,35.574 C305.2447,33.977 304.5147,32.291 302.7227,32.291 L302.7227,32.291 Z M299.0837,31.723 L299.9487,31.723 L299.9487,33.187 L299.9787,33.187 C300.4097,32.144 301.4857,31.5 302.7237,31.5 C305.0647,31.5 306.1847,33.395 306.1847,35.574 C306.1847,37.75 305.0647,39.646 302.7237,39.646 C301.5767,39.646 300.4557,39.064 300.0547,37.96 L300.0247,37.96 L300.0247,42.271 L299.0857,42.271 L299.0857,31.723 L299.0837,31.723 Z" id="Fill-31" fill="#0080A6" sketch:type="MSShapeGroup" mask="url(#mask-4)"></path>
            <path d="M308.319,31.725 L309.258,31.725 L309.258,39.422 L308.319,39.422 L308.319,31.725 Z M308.319,28.772 L309.258,28.772 L309.258,30.278 L308.319,30.278 L308.319,28.772 Z" id="Fill-32" fill="#0080A6" sketch:type="MSShapeGroup" mask="url(#mask-4)"></path>
            <path d="M313.2104,31.7246 L314.7764,31.7246 L314.7764,32.5156 L313.2104,32.5156 L313.2104,37.7066 C313.2104,38.3166 313.2994,38.6756 313.9724,38.7206 C314.2404,38.7206 314.5094,38.7056 314.7764,38.6756 L314.7764,39.4826 C314.4944,39.4826 314.2264,39.5126 313.9424,39.5126 C312.6894,39.5126 312.2564,39.0936 312.2714,37.7816 L312.2714,32.5166 L310.9304,32.5166 L310.9304,31.7256 L312.2714,31.7256 L312.2714,29.4136 L313.2104,29.4136 L313.2104,31.7246 Z" id="Fill-33" fill="#0080A6" sketch:type="MSShapeGroup" mask="url(#mask-4)"></path>
            <path d="M321.6646,35.2148 L321.6346,35.2148 C321.5176,35.4408 321.1006,35.5128 320.8446,35.5578 C319.2476,35.8408 317.2646,35.8278 317.2646,37.3318 C317.2646,38.2708 318.0996,38.8538 318.9796,38.8538 C320.4096,38.8538 321.6776,37.9448 321.6636,36.4378 L321.6636,35.2148 L321.6646,35.2148 Z M316.6516,34.0798 C316.7426,32.2768 318.0096,31.5008 319.7696,31.5008 C321.1276,31.5008 322.6046,31.9188 322.6046,33.9768 L322.6046,38.0648 C322.6046,38.4218 322.7846,38.6298 323.1596,38.6298 C323.2636,38.6298 323.3816,38.5998 323.4566,38.5698 L323.4566,39.3598 C323.2476,39.4048 323.0976,39.4218 322.8436,39.4218 C321.8886,39.4218 321.7416,38.8848 321.7416,38.0778 L321.7106,38.0778 C321.0556,39.0778 320.3836,39.6458 318.9076,39.6458 C317.4896,39.6458 316.3256,38.9438 316.3256,37.3928 C316.3256,35.2298 318.4296,35.1558 320.4576,34.9168 C321.2326,34.8278 321.6656,34.7208 321.6656,33.8728 C321.6656,32.6038 320.7546,32.2898 319.6516,32.2898 C318.4896,32.2898 317.6246,32.8278 317.5936,34.0798 L316.6516,34.0798 Z" id="Fill-34" fill="#0080A6" sketch:type="MSShapeGroup" mask="url(#mask-4)"></path>
            <path d="M325.187,28.772 L326.126,28.772 L326.126,39.422 L325.187,39.422 L325.187,28.772 Z" id="Fill-35" fill="#0080A6" sketch:type="MSShapeGroup" mask="url(#mask-4)"></path>
            <path d="M328.56,31.725 L329.5,31.725 L329.5,39.422 L328.56,39.422 L328.56,31.725 Z M328.56,28.772 L329.5,28.772 L329.5,30.278 L328.56,30.278 L328.56,28.772 Z" id="Fill-36" fill="#0080A6" sketch:type="MSShapeGroup" mask="url(#mask-4)"></path>
            <path d="M337.5024,35.0356 C337.4584,33.6186 336.5794,32.2896 335.0564,32.2896 C333.5204,32.2896 332.6714,33.6336 332.5214,35.0356 L337.5024,35.0356 Z M332.5204,35.8276 C332.5344,37.1986 333.2514,38.8536 335.0554,38.8536 C336.4274,38.8536 337.1744,38.0486 337.4734,36.8856 L338.4104,36.8856 C338.0074,38.6296 336.9954,39.6456 335.0554,39.6456 C332.6074,39.6456 331.5794,37.7646 331.5794,35.5726 C331.5794,33.5416 332.6074,31.4986 335.0554,31.4986 C337.5304,31.4986 338.5164,33.6616 338.4424,35.8266 L332.5204,35.8266 L332.5204,35.8276 Z" id="Fill-37" fill="#0080A6" sketch:type="MSShapeGroup" mask="url(#mask-4)"></path>
            <path d="M340.4468,31.7246 L341.3088,31.7246 L341.3088,33.5296 L341.3398,33.5296 C341.8178,32.2906 342.8608,31.5596 344.2488,31.6196 L344.2488,32.5596 C342.5458,32.4706 341.3838,33.7226 341.3838,35.3186 L341.3838,39.4216 L340.4468,39.4216 L340.4468,31.7246 Z" id="Fill-38" fill="#0080A6" sketch:type="MSShapeGroup" mask="url(#mask-4)"></path>
            <path d="M350.4634,33.9766 C350.4164,32.8116 349.5204,32.2906 348.4474,32.2906 C347.6124,32.2906 346.6264,32.6196 346.6264,33.6196 C346.6264,34.4526 347.5824,34.7526 348.2234,34.9166 L349.4784,35.1996 C350.5504,35.3636 351.6704,35.9906 351.6704,37.3316 C351.6704,39.0036 350.0124,39.6456 348.5824,39.6456 C346.7934,39.6456 345.5684,38.8096 345.4204,36.9296 L346.3604,36.9296 C346.4344,38.1976 347.3724,38.8536 348.6274,38.8536 C349.5064,38.8536 350.7304,38.4666 350.7304,37.3926 C350.7304,36.4966 349.8954,36.1996 349.0434,35.9906 L347.8364,35.7226 C346.6134,35.3936 345.6884,34.9756 345.6884,33.6636 C345.6884,32.0986 347.2254,31.5006 348.5824,31.5006 C350.1194,31.5006 351.3384,32.3066 351.4014,33.9766 L350.4634,33.9766 Z" id="Fill-39" fill="#0080A6" sketch:type="MSShapeGroup" mask="url(#mask-4)"></path>
            <path d="M163.8638,55.7617 C165.8638,55.7617 166.5628,54.0767 166.5628,52.4797 C166.5628,50.8817 165.8638,49.1967 163.8638,49.1967 C162.0718,49.1967 161.3428,50.8817 161.3428,52.4797 C161.3428,54.0767 162.0718,55.7617 163.8638,55.7617 L163.8638,55.7617 Z M167.5038,56.3287 L166.6388,56.3287 L166.6388,54.8667 L166.6078,54.8667 C166.2058,55.8657 164.9828,56.5537 163.8648,56.5537 C161.5228,56.5537 160.4028,54.6577 160.4028,52.4797 C160.4028,50.3037 161.5228,48.4077 163.8648,48.4077 C165.0118,48.4077 166.1308,48.9877 166.5348,50.0927 L166.5638,50.0927 L166.5638,45.6777 L167.5058,45.6777 L167.5058,56.3287 L167.5038,56.3287 Z" id="Fill-40" fill="#0080A6" sketch:type="MSShapeGroup" mask="url(#mask-4)"></path>
            <path d="M175.8042,56.3286 L174.9382,56.3286 L174.9382,54.9416 L174.9072,54.9416 C174.4162,55.9696 173.4012,56.5526 172.2522,56.5526 C170.3122,56.5526 169.5522,55.4166 169.5522,53.6276 L169.5522,48.6306 L170.4912,48.6306 L170.4912,53.6416 C170.5382,55.0296 171.0592,55.7596 172.5492,55.7596 C174.1612,55.7596 174.8632,54.2406 174.8632,52.6726 L174.8632,48.6306 L175.8022,48.6306 L175.8022,56.3286 L175.8042,56.3286 Z" id="Fill-41" fill="#0080A6" sketch:type="MSShapeGroup" mask="url(#mask-4)"></path>
            <path d="M182.3374,45.6768 L183.4724,45.6768 L189.6754,54.6878 L189.7064,54.6878 L189.7064,45.6768 L190.7194,45.6768 L190.7194,56.3288 L189.5864,56.3288 L183.3814,47.3198 L183.3524,47.3198 L183.3524,56.3288 L182.3374,56.3288 L182.3374,45.6768 Z" id="Fill-42" fill="#0080A6" sketch:type="MSShapeGroup" mask="url(#mask-4)"></path>
            <path d="M193.5181,52.4795 C193.5181,54.1215 194.4141,55.7615 196.2161,55.7615 C198.0221,55.7615 198.9171,54.1215 198.9171,52.4795 C198.9171,50.8385 198.0221,49.1965 196.2161,49.1965 C194.4141,49.1965 193.5181,50.8385 193.5181,52.4795 M199.8581,52.4795 C199.8581,54.6875 198.5761,56.5535 196.2181,56.5535 C193.8611,56.5535 192.5791,54.6875 192.5791,52.4795 C192.5791,50.2725 193.8611,48.4065 196.2181,48.4065 C198.5751,48.4065 199.8581,50.2725 199.8581,52.4795" id="Fill-43" fill="#0080A6" sketch:type="MSShapeGroup" mask="url(#mask-4)"></path>
            <path d="M201.543,48.6304 L202.407,48.6304 L202.407,50.4354 L202.436,50.4354 C202.914,49.1964 203.959,48.4654 205.345,48.5264 L205.345,49.4654 C203.644,49.3764 202.481,50.6284 202.481,52.2254 L202.481,56.3284 L201.542,56.3284 L201.542,48.6304 L201.543,48.6304 Z" id="Fill-44" fill="#0080A6" sketch:type="MSShapeGroup" mask="url(#mask-4)"></path>
            <path d="M209.4927,55.7617 C211.4927,55.7617 212.1907,54.0767 212.1907,52.4797 C212.1907,50.8817 211.4907,49.1967 209.4927,49.1967 C207.7007,49.1967 206.9717,50.8817 206.9717,52.4797 C206.9717,54.0767 207.7007,55.7617 209.4927,55.7617 L209.4927,55.7617 Z M213.1327,56.3287 L212.2677,56.3287 L212.2677,54.8667 L212.2367,54.8667 C211.8347,55.8657 210.6127,56.5537 209.4927,56.5537 C207.1507,56.5537 206.0307,54.6577 206.0307,52.4797 C206.0307,50.3037 207.1507,48.4077 209.4927,48.4077 C210.6397,48.4077 211.7587,48.9877 212.1627,50.0927 L212.1907,50.0927 L212.1907,45.6777 L213.1317,45.6777 L213.1317,56.3287 L213.1327,56.3287 Z" id="Fill-45" fill="#0080A6" sketch:type="MSShapeGroup" mask="url(#mask-4)"></path>
            <path d="M218.5176,45.6768 L219.6076,45.6768 L223.0686,55.2088 L223.0956,55.2088 L226.5296,45.6768 L227.6026,45.6768 L223.6486,56.3288 L222.4706,56.3288 L218.5176,45.6768 Z" id="Fill-46" fill="#0080A6" sketch:type="MSShapeGroup" mask="url(#mask-4)"></path>
            <path d="M232.9282,52.1206 L232.9002,52.1206 C232.7812,52.3456 232.3622,52.4196 232.1082,52.4646 C230.5112,52.7466 228.5292,52.7326 228.5292,54.2396 C228.5292,55.1766 229.3642,55.7606 230.2432,55.7606 C231.6752,55.7606 232.9432,54.8516 232.9282,53.3446 L232.9282,52.1206 Z M227.9172,50.9886 C228.0082,49.1836 229.2732,48.4086 231.0352,48.4086 C232.3912,48.4086 233.8702,48.8256 233.8702,50.8836 L233.8702,54.9726 C233.8702,55.3286 234.0482,55.5376 234.4222,55.5376 C234.5262,55.5376 234.6442,55.5086 234.7202,55.4776 L234.7202,56.2676 C234.5112,56.3126 234.3602,56.3286 234.1082,56.3286 C233.1522,56.3286 233.0042,55.7916 233.0042,54.9866 L232.9742,54.9866 C232.3192,55.9856 231.6482,56.5536 230.1702,56.5536 C228.7522,56.5536 227.5912,55.8506 227.5912,54.3006 C227.5912,52.1376 229.6932,52.0626 231.7232,51.8246 C232.4982,51.7346 232.9312,51.6296 232.9312,50.7796 C232.9312,49.5116 232.0192,49.1986 230.9162,49.1986 C229.7532,49.1986 228.8902,49.7346 228.8582,50.9886 L227.9172,50.9886 Z" id="Fill-47" fill="#0080A6" sketch:type="MSShapeGroup" mask="url(#mask-4)"></path>
            <path d="M242.2231,56.3286 L241.3581,56.3286 L241.3581,54.9416 L241.3271,54.9416 C240.8361,55.9696 239.8231,56.5526 238.6731,56.5526 C236.7331,56.5526 235.9731,55.4166 235.9731,53.6276 L235.9731,48.6306 L236.9121,48.6306 L236.9121,53.6416 C236.9601,55.0296 237.4821,55.7596 238.9721,55.7596 C240.5841,55.7596 241.2861,54.2406 241.2861,52.6726 L241.2861,48.6306 L242.2241,48.6306 L242.2241,56.3286 L242.2231,56.3286 Z" id="Fill-48" fill="#0080A6" sketch:type="MSShapeGroup" mask="url(#mask-4)"></path>
            <path d="M247.4136,55.7617 C249.4116,55.7617 250.1116,54.0767 250.1116,52.4797 C250.1116,50.8817 249.4136,49.1967 247.4136,49.1967 C245.6216,49.1967 244.8926,50.8817 244.8926,52.4797 C244.8926,54.0767 245.6216,55.7617 247.4136,55.7617 L247.4136,55.7617 Z M251.0526,56.3287 L250.1876,56.3287 L250.1876,54.8667 L250.1566,54.8667 C249.7546,55.8657 248.5306,56.5537 247.4126,56.5537 C245.0716,56.5537 243.9516,54.6577 243.9516,52.4797 C243.9516,50.3037 245.0716,48.4077 247.4126,48.4077 C248.5596,48.4077 249.6776,48.9877 250.0826,50.0927 L250.1106,50.0927 L250.1106,45.6777 L251.0526,45.6777 L251.0526,56.3287 Z" id="Fill-49" fill="#0080A6" sketch:type="MSShapeGroup" mask="url(#mask-4)"></path>
            <path d="M253.6763,52.4795 C253.6763,54.1215 254.5723,55.7615 256.3763,55.7615 C258.1803,55.7615 259.0763,54.1215 259.0763,52.4795 C259.0763,50.8385 258.1803,49.1965 256.3763,49.1965 C254.5723,49.1965 253.6763,50.8385 253.6763,52.4795 M260.0163,52.4795 C260.0163,54.6875 258.7353,56.5535 256.3773,56.5535 C254.0203,56.5535 252.7393,54.6875 252.7393,52.4795 C252.7393,50.2725 254.0203,48.4065 256.3773,48.4065 C258.7353,48.4065 260.0163,50.2725 260.0163,52.4795" id="Fill-50" fill="#0080A6" sketch:type="MSShapeGroup" mask="url(#mask-4)"></path>
            <path d="M261.725,48.63 L262.665,48.63 L262.665,56.328 L261.725,56.328 L261.725,48.63 Z M261.725,45.677 L262.665,45.677 L262.665,47.184 L261.725,47.184 L261.725,45.677 Z" id="Fill-51" fill="#0080A6" sketch:type="MSShapeGroup" mask="url(#mask-4)"></path>
            <path d="M269.3218,50.8818 C269.2758,49.7188 268.3818,49.1968 267.3078,49.1968 C266.4708,49.1968 265.4878,49.5258 265.4878,50.5248 C265.4878,51.3588 266.4428,51.6578 267.0828,51.8238 L268.3358,52.1038 C269.4108,52.2688 270.5278,52.8978 270.5278,54.2388 C270.5278,55.9088 268.8738,56.5528 267.4398,56.5528 C265.6498,56.5528 264.4268,55.7148 264.2788,53.8368 L265.2188,53.8368 C265.2928,55.1038 266.2338,55.7608 267.4858,55.7608 C268.3648,55.7608 269.5878,55.3738 269.5878,54.2988 C269.5878,53.4038 268.7538,53.1058 267.9038,52.8978 L266.6968,52.6278 C265.4728,52.2998 264.5468,51.8818 264.5468,50.5698 C264.5468,49.0058 266.0838,48.4068 267.4408,48.4068 C268.9788,48.4068 270.1998,49.2128 270.2608,50.8818 L269.3218,50.8818 Z" id="Fill-52" fill="#0080A6" sketch:type="MSShapeGroup" mask="url(#mask-4)"></path>
        </g>
    </g>
</svg>
