<?xml version="1.0" encoding="UTF-8"?>
<svg width="190px" height="123px" viewBox="0 0 190 123" version="1.1" xmlns="http://www.w3.org/2000/svg" xmlns:xlink="http://www.w3.org/1999/xlink">
    <!-- Generator: Sketch 40.1 (33804) - http://www.bohemiancoding.com/sketch -->
    <title>Hmag</title>
    <desc>Created with Sketch.</desc>
    <defs>
        <polygon id="path-1" points="65.662 23.8177 65.662 0.4747 0.2253 0.4747 0.2253 23.8177 65.662 23.8177"></polygon>
    </defs>
    <g id="Page-1" stroke="none" stroke-width="1" fill="none" fill-rule="evenodd">
        <g id="Hmag">
            <g id="Group-3" transform="translate(124.000000, 31.246000)">
                <mask id="mask-2" fill="white">
                    <use xlink:href="#path-1"></use>
                </mask>
                <g id="Clip-2"></g>
                <path d="M19.5373,1.2557 C20.3703,1.7767 21.0263,2.4637 21.5063,3.3187 L21.5063,16.9437 L17.5063,16.9437 L17.5063,4.7557 C17.2763,4.6097 17.0263,4.4957 16.7563,4.4117 C16.4853,4.3497 16.2043,4.3187 15.9123,4.3187 C15.1003,4.3187 14.3913,4.6097 13.7873,5.1937 C13.1833,5.7977 12.8813,6.5167 12.8813,7.3497 L12.8503,7.3497 L12.8503,16.9437 L8.8493,16.9437 L8.8493,4.7557 C8.6203,4.6097 8.3703,4.4957 8.0993,4.4117 C7.8293,4.3497 7.5473,4.3187 7.2563,4.3187 C6.4223,4.3187 5.7043,4.6097 5.0993,5.1937 C4.5163,5.7977 4.2243,6.5167 4.2243,7.3497 L4.2243,16.9437 L0.2253,16.9437 L0.2253,4.9437 L0.2253,0.9437 L3.8813,0.9437 C4.0683,1.6307 4.2043,2.1417 4.2873,2.4747 C4.7043,1.8917 5.2353,1.4117 5.8813,1.0367 C6.5263,0.6617 7.2973,0.4747 8.1933,0.4747 C9.0473,0.4747 9.8493,0.6727 10.5993,1.0687 C11.3703,1.4637 11.9853,1.9847 12.4433,2.6307 C12.9433,2.0057 13.5473,1.4847 14.2563,1.0687 C14.9853,0.6727 15.7973,0.4747 16.6933,0.4747 C17.7353,0.4747 18.6833,0.7347 19.5373,1.2557 L19.5373,1.2557 Z M39.9433,16.9437 L39.0063,16.9437 C38.2353,16.9437 37.5373,16.7867 36.9123,16.4747 C36.2663,16.1617 35.7243,15.7457 35.2873,15.2247 C34.7873,15.8707 34.1203,16.4017 33.2873,16.8187 C32.4753,17.2137 31.6003,17.4117 30.6623,17.4117 C29.4753,17.4117 28.4543,17.1727 27.6003,16.6937 C26.7663,16.2347 25.9643,15.5887 25.1933,14.7557 L25.1933,9.4437 C25.6723,8.8177 26.4543,8.3597 27.5373,8.0677 C28.6413,7.7977 29.6833,7.5787 30.6623,7.4117 C32.3703,7.1417 33.3813,6.8287 33.6933,6.4747 C34.0263,6.0997 34.1933,5.7457 34.1933,5.4117 C34.1933,4.9327 33.9433,4.5687 33.4433,4.3187 C32.9223,4.0477 32.2353,3.9117 31.3813,3.9117 C30.9013,3.9117 30.4853,3.9747 30.1313,4.0997 C29.7763,4.2037 29.4753,4.3387 29.2253,4.5057 C28.7453,4.7977 28.4223,5.1097 28.2563,5.4427 L27.9753,5.9747 C26.5793,5.1827 25.5373,4.5787 24.8493,4.1617 C25.3913,3.0787 26.1623,2.1927 27.1623,1.5057 C28.1833,0.8187 29.5893,0.4747 31.3813,0.4747 C33.6513,0.4747 35.3503,0.9537 36.4743,1.9117 C37.6203,2.8707 38.1933,4.2347 38.1933,6.0057 L38.1933,11.6617 C38.1933,12.1207 38.3493,12.4957 38.6623,12.7867 C38.9743,13.0997 39.3493,13.2557 39.7873,13.2557 L39.9433,13.2557 L39.9433,16.9437 Z M33.3183,13.2867 C33.9013,12.8287 34.1933,12.0367 34.1933,10.9117 L34.1933,9.6307 C33.4433,10.0687 32.5263,10.3187 31.4433,10.3807 C30.3813,10.4437 29.5063,10.6827 28.8183,11.0997 L28.8183,13.1617 C29.1933,13.4117 29.5893,13.6097 30.0063,13.7557 C30.4223,13.9017 30.8603,13.9747 31.3183,13.9747 C32.0893,13.9747 32.7563,13.7457 33.3183,13.2867 L33.3183,13.2867 Z M55.3503,4.3187 C55.4333,4.5887 55.4953,4.8707 55.5373,5.1617 C55.5793,5.4747 55.6003,5.7867 55.6003,6.0997 C55.6003,7.9747 54.9643,9.3707 53.6933,10.2867 C52.4433,11.2247 50.8913,11.6937 49.0373,11.6937 C48.7043,11.6937 48.3703,11.6827 48.0373,11.6617 C47.7043,11.6207 47.3913,11.5687 47.0993,11.5057 C46.8493,11.8597 46.8603,12.1827 47.1313,12.4747 C47.4013,12.7667 48.0063,12.9117 48.9433,12.9117 L49.7873,12.9117 C51.3293,12.9117 52.6833,13.0577 53.8503,13.3497 C55.0163,13.6417 55.9333,14.3597 56.6003,15.5057 L56.6003,21.2867 C55.8503,22.1617 54.8503,22.7977 53.6003,23.1927 C52.3703,23.6097 51.0993,23.8177 49.7873,23.8177 C49.0993,23.8177 48.4333,23.7447 47.7873,23.5997 C47.1203,23.4747 46.4953,23.2767 45.9123,23.0057 C44.8293,22.5057 43.9433,21.8177 43.2563,20.9427 C42.5473,20.0677 42.1933,19.0577 42.1933,17.9117 C42.1933,17.5577 42.2353,17.2447 42.3183,16.9747 C42.4223,16.6827 42.5473,16.4327 42.6933,16.2247 C42.9433,15.8287 43.2143,15.5267 43.5063,15.3187 L43.9433,15.0367 C43.1933,14.3497 42.9543,13.5687 43.2243,12.6937 C43.4953,11.8187 44.0063,11.0997 44.7563,10.5367 C44.0473,10.0997 43.4953,9.5057 43.0993,8.7557 C42.7043,8.0057 42.5063,7.1207 42.5063,6.0997 C42.5063,4.2037 43.1313,2.7867 44.3813,1.8497 C45.6313,0.9327 47.1833,0.4747 49.0373,0.4747 C49.5793,0.4747 50.0993,0.5057 50.5993,0.5687 C51.0993,0.6517 51.5683,0.7767 52.0063,0.9437 L56.6933,0.9437 L56.6933,4.3187 L55.3503,4.3187 Z M50.9743,7.8807 C51.4953,7.3807 51.7563,6.7867 51.7563,6.0997 C51.7563,5.3917 51.4953,4.7767 50.9743,4.2557 C50.4333,3.7557 49.7873,3.5057 49.0373,3.5057 C48.3083,3.5057 47.6723,3.7557 47.1313,4.2557 C46.6103,4.7767 46.3493,5.3917 46.3493,6.0997 C46.3493,6.7867 46.6103,7.3807 47.1313,7.8807 C47.6723,8.4017 48.3083,8.6617 49.0373,8.6617 C49.7873,8.6617 50.4333,8.4017 50.9743,7.8807 L50.9743,7.8807 Z M47.1313,16.1617 L46.5373,16.0687 L46.1313,16.5057 C45.8393,16.7977 45.6933,17.2657 45.6933,17.9117 C45.6933,18.5367 46.0263,19.1407 46.6933,19.7247 C47.3393,20.2867 48.3913,20.5677 49.8493,20.5677 C50.5993,20.5677 51.2143,20.4847 51.6933,20.3177 C52.1723,20.1727 52.5473,19.9847 52.8183,19.7557 L52.8183,16.8187 C52.5473,16.6517 52.1723,16.5167 51.6933,16.4117 C51.2143,16.3077 50.5793,16.2557 49.7873,16.2557 C48.3913,16.2557 47.5063,16.2247 47.1313,16.1617 L47.1313,16.1617 Z M60.7253,16.7557 C60.1833,16.1937 59.9123,15.5057 59.9123,14.6937 C59.9123,13.9017 60.1833,13.2247 60.7253,12.6617 C61.2873,12.0997 61.9753,11.8187 62.7873,11.8187 C63.5793,11.8187 64.2563,12.0997 64.8183,12.6617 C65.3813,13.2247 65.6623,13.9017 65.6623,14.6937 C65.6623,15.5057 65.3813,16.1937 64.8183,16.7557 C64.2563,17.2977 63.5793,17.5677 62.7873,17.5677 C61.9753,17.5677 61.2873,17.2977 60.7253,16.7557 L60.7253,16.7557 Z" id="Fill-1" fill="#243184" mask="url(#mask-2)"></path>
            </g>
            <polygon id="Fill-4" fill="#243184" points="72.5877 -0.0001 72.5877 44.3329 37.8967 44.3329 37.8967 -0.0001 -0.0003 -0.0001 -0.0003 122.2459 37.8967 122.2459 37.8967 78.3689 72.5877 78.3689 72.5877 122.2459 110.4847 122.2459 110.4847 -0.0001"></polygon>
        </g>
    </g>
</svg>