<?xml version="1.0" encoding="UTF-8" standalone="no"?>
<svg viewBox="0 0 139 84" version="1.1" xmlns="http://www.w3.org/2000/svg" xmlns:xlink="http://www.w3.org/1999/xlink" xmlns:sketch="http://www.bohemiancoding.com/sketch/ns">
    <!-- Generator: Sketch 3.5.1 (25234) - http://www.bohemiancoding.com/sketch -->
    <title>logo_eHnv_redux</title>
    <desc>Created with Sketch.</desc>
    <defs>
        <path id="path-1" d="M0,0.879 L138.409,0.879 L138.409,84 L0,84 L0,0.879 Z"></path>
    </defs>
    <g id="Page-1" stroke="none" stroke-width="1" fill="none" fill-rule="evenodd" sketch:type="MSPage">
        <g id="logo_eHnv_redux" sketch:type="MSLayerGroup">
            <path d="M71.9966,20.7622 L65.3356,20.7622 C64.3686,20.7622 63.5736,21.5582 63.5736,22.5332 L63.5706,37.4732 L48.8946,37.4732 L48.8836,22.5332 C48.8836,21.5582 48.0886,20.7622 47.1226,20.7622 L40.4596,20.7622 C39.4786,20.7622 38.6866,21.5582 38.6866,22.5332 L38.6866,62.2582 C38.6866,63.2342 39.4786,64.0292 40.4596,64.0292 L47.1226,64.0292 C48.0886,64.0292 48.8836,63.2322 48.8836,62.2582 L48.8946,45.8832 L63.5706,45.8832 L63.5736,62.2582 C63.5736,63.2322 64.3686,64.0292 65.3356,64.0292 L71.9966,64.0292 C72.9696,64.0292 73.7626,63.2322 73.7626,62.2602 L73.7626,22.5332 C73.7626,21.5582 72.9696,20.7622 71.9966,20.7622" id="Fill-1" fill="#0080A6" sketch:type="MSShapeGroup"></path>
            <path d="M23.6328,20.1172 C23.7488,19.9882 36.0418,7.7562 56.6728,7.7562 C76.3788,7.7562 88.1398,20.3362 88.2408,20.4692 C88.1008,20.2672 73.8838,0.8792 56.3848,0.8792 C37.5578,0.8792 23.7838,19.9132 23.6328,20.1172" id="Fill-3" fill="#0080A6" sketch:type="MSShapeGroup"></path>
            <path d="M88.2407,64.7627 C88.1357,64.8897 75.8367,77.1217 55.2087,77.1217 C35.4937,77.1227 23.7477,64.5417 23.6317,64.4077 C23.7837,64.6047 37.9917,83.9997 55.4917,83.9997 C74.3347,83.9997 88.1077,64.9627 88.2407,64.7627" id="Fill-5" fill="#0080A6" sketch:type="MSShapeGroup"></path>
            <g id="Group-9">
                <mask id="mask-2" sketch:name="Clip 8" fill="white">
                    <use xlink:href="#path-1"></use>
                </mask>
                <g id="Clip-8"></g>
                <path d="M19.0728,39.936 C18.8538,36.457 17.2438,33.458 13.2278,33.458 C9.2118,33.458 7.1788,36.24 6.8568,39.936 L19.0728,39.936 Z M23.8878,54.882 C21.2678,56.326 18.2628,57.075 14.4048,57.075 C5.3018,57.075 -0.0002,51.829 -0.0002,42.774 C-0.0002,34.792 4.2298,28.207 12.8018,28.207 C23.0268,28.207 25.9238,35.219 25.9238,44.859 L6.8558,44.859 C7.1778,49.31 10.2848,51.829 14.7348,51.829 C18.2118,51.829 21.2108,50.539 23.8878,49.044 L23.8878,54.882 Z" id="Fill-7" fill="#706F6F" sketch:type="MSShapeGroup" mask="url(#mask-2)"></path>
            </g>
            <path d="M131.2295,28.8052 L124.5915,48.8972 L124.4815,48.8972 L117.6255,28.8052 L109.9155,28.8052 L110.5865,30.6212 C109.0695,29.1132 106.9245,28.2342 104.0715,28.2342 C100.3245,28.2342 97.2725,29.4672 95.0195,32.6302 L94.9145,32.6302 L94.9145,28.8762 L88.1075,28.8762 L88.1075,56.4652 L95.2875,56.4652 L95.2875,42.9622 C95.2875,39.4312 96.4115,33.8062 101.6085,33.8062 C106.2125,33.8062 106.2695,38.3582 106.2695,41.7332 L106.2695,56.4652 L113.4495,56.4652 L113.4495,39.0552 C113.4495,38.7862 113.4345,38.5272 113.4225,38.2692 L120.1455,56.3922 L128.2325,56.3922 L138.4085,28.8062 L131.2295,28.8062 L131.2295,28.8052 Z" id="Fill-10" fill="#706F6F" sketch:type="MSShapeGroup"></path>
        </g>
    </g>
</svg>
