<svg width="127" height="30" viewBox="0 0 127 30" xmlns="http://www.w3.org/2000/svg" xmlns:xlink="http://www.w3.org/1999/xlink"><title>logo_ehnv_white</title><defs><path id="path-1" d="M1.633 6.205v-6h-.91v6h.91z"/></defs><g id="Page-1" fill="none" fill-rule="evenodd"><g id="logo_ehnv_white" transform="translate(0 -1)"><g id="Group-13" transform="translate(0 .135)"><path d="M25.235 7.835H22.9a.62.62 0 0 0-.617.62l-.001 5.236h-5.144l-.004-5.236a.62.62 0 0 0-.617-.62h-2.336a.62.62 0 0 0-.621.62v13.924c0 .343.278.62.621.62h2.336a.621.621 0 0 0 .617-.62l.004-5.74h5.144l.001 5.74a.62.62 0 0 0 .617.62h2.335a.621.621 0 0 0 .619-.62V8.456a.62.62 0 0 0-.619-.62" id="Fill-1" fill="#FEFEFE"/><path d="M8.283 7.608c.041-.045 4.35-4.332 11.58-4.332 6.908 0 11.03 4.409 11.065 4.455-.048-.07-5.03-6.865-11.165-6.865-6.599 0-11.427 6.672-11.48 6.742" id="Fill-3" fill="#FEFEFE"/><path d="M30.929 23.256c-.037.044-4.348 4.332-11.578 4.332-6.91 0-11.027-4.409-11.067-4.456.053.07 5.032 6.867 11.166 6.867 6.604 0 11.432-6.672 11.479-6.742" id="Fill-5" fill="#FEFEFE"/><path d="M6.684 14.555c-.076-1.219-.64-2.27-2.049-2.27-1.408 0-2.119.975-2.233 2.27h4.282zm1.688 5.24c-.918.505-1.97.768-3.324.768-3.19 0-5.048-1.84-5.048-5.013 0-2.797 1.482-5.106 4.487-5.106 3.584 0 4.6 2.458 4.6 5.837H2.401c.114 1.56 1.203 2.442 2.761 2.442 1.22 0 2.27-.45 3.21-.976v2.047z" id="Fill-7" fill="#FEFEFE"/><path d="M45.997 10.653l-2.327 7.042h-.038l-2.404-7.042h-2.702l.235.637c-.532-.53-1.284-.837-2.283-.837-1.314 0-2.383.432-3.173 1.541h-.037v-1.316h-2.386v9.67H33.4v-4.733c0-1.237.393-3.209 2.214-3.209 1.614 0 1.634 1.596 1.634 2.78v5.162h2.517v-6.102c0-.094-.006-.185-.01-.276l2.357 6.352h2.834l3.567-9.669h-2.516z" id="Fill-9" fill="#FEFEFE"/><path d="M51.99 10.632v9.684" id="Stroke-11" stroke="#FEFEFE" stroke-width=".209"/></g><text id="E" font-family="HelveticaNeue-Light, Helvetica Neue" font-size="5.229" font-weight="300" fill="#FEFEFE"><tspan x="56.025" y="13.34">E</tspan></text><text id="t" font-family="HelveticaNeue-Light, Helvetica Neue" font-size="5.229" font-weight="300" fill="#FEFEFE"><tspan x="59.367" y="13.34">t</tspan></text><text id="a" font-family="HelveticaNeue-Light, Helvetica Neue" font-size="5.229" font-weight="300" fill="#FEFEFE"><tspan x="61.259" y="13.34">a</tspan></text><text id="b" font-family="HelveticaNeue-Light, Helvetica Neue" font-size="5.229" font-weight="300" fill="#FEFEFE"><tspan x="64.339" y="13.34">b</tspan></text><text id="l" font-family="HelveticaNeue-Light, Helvetica Neue" font-size="5.229" font-weight="300" fill="#FEFEFE"><tspan x="67.691" y="13.34">l</tspan></text><text id="i" font-family="HelveticaNeue-Light, Helvetica Neue" font-size="5.229" font-weight="300" fill="#FEFEFE"><tspan x="69.003" y="13.34">i</tspan></text><text id="s" font-family="HelveticaNeue-Light, Helvetica Neue" font-size="5.229" font-weight="300" fill="#FEFEFE"><tspan x="70.321" y="13.34">s</tspan></text><text id="s" font-family="HelveticaNeue-Light, Helvetica Neue" font-size="5.229" font-weight="300" fill="#FEFEFE"><tspan x="73.207" y="13.34">s</tspan></text><text id="e" font-family="HelveticaNeue-Light, Helvetica Neue" font-size="5.229" font-weight="300" fill="#FEFEFE"><tspan x="76.067" y="13.34">e</tspan></text><text id="m" font-family="HelveticaNeue-Light, Helvetica Neue" font-size="5.229" font-weight="300" fill="#FEFEFE"><tspan x="79.158" y="13.34">m</tspan></text><text id="e" font-family="HelveticaNeue-Light, Helvetica Neue" font-size="5.229" font-weight="300" fill="#FEFEFE"><tspan x="83.869" y="13.34">e</tspan></text><text id="n" font-family="HelveticaNeue-Light, Helvetica Neue" font-size="5.229" font-weight="300" fill="#FEFEFE"><tspan x="86.959" y="13.34">n</tspan></text><text id="t" font-family="HelveticaNeue-Light, Helvetica Neue" font-size="5.229" font-weight="300" fill="#FEFEFE"><tspan x="90.075" y="13.34">t</tspan></text><text id="s-" font-family="HelveticaNeue-Light, Helvetica Neue" font-size="5.229" font-weight="300" letter-spacing=".05" fill="#FEFEFE"><tspan x="91.926" y="13.34">s </tspan></text><text id="H" font-family="HelveticaNeue-Light, Helvetica Neue" font-size="5.229" font-weight="300" fill="#FEFEFE"><tspan x="96.418" y="13.34">H</tspan></text><text id="o" font-family="HelveticaNeue-Light, Helvetica Neue" font-size="5.229" font-weight="300" fill="#FEFEFE"><tspan x="100.449" y="13.34">o</tspan></text><text id="s" font-family="HelveticaNeue-Light, Helvetica Neue" font-size="5.229" font-weight="300" fill="#FEFEFE"><tspan x="103.696" y="13.34">s</tspan></text><text id="p" font-family="HelveticaNeue-Light, Helvetica Neue" font-size="5.229" font-weight="300" fill="#FEFEFE"><tspan x="106.567" y="13.34">p</tspan></text><text id="i" font-family="HelveticaNeue-Light, Helvetica Neue" font-size="5.229" font-weight="300" fill="#FEFEFE"><tspan x="109.919" y="13.34">i</tspan></text><text id="t" font-family="HelveticaNeue-Light, Helvetica Neue" font-size="5.229" font-weight="300" fill="#FEFEFE"><tspan x="111.247" y="13.34">t</tspan></text><text id="a" font-family="HelveticaNeue-Light, Helvetica Neue" font-size="5.229" font-weight="300" fill="#FEFEFE"><tspan x="113.14" y="13.34">a</tspan></text><text id="l" font-family="HelveticaNeue-Light, Helvetica Neue" font-size="5.229" font-weight="300" fill="#FEFEFE"><tspan x="116.214" y="13.34">l</tspan></text><text id="i" font-family="HelveticaNeue-Light, Helvetica Neue" font-size="5.229" font-weight="300" fill="#FEFEFE"><tspan x="117.521" y="13.34">i</tspan></text><text id="e" font-family="HelveticaNeue-Light, Helvetica Neue" font-size="5.229" font-weight="300" fill="#FEFEFE"><tspan x="118.849" y="13.34">e</tspan></text><text id="r" font-family="HelveticaNeue-Light, Helvetica Neue" font-size="5.229" font-weight="300" fill="#FEFEFE"><tspan x="121.934" y="13.34">r</tspan></text><text id="s" font-family="HelveticaNeue-Light, Helvetica Neue" font-size="5.229" font-weight="300" fill="#FEFEFE"><tspan x="123.948" y="13.34">s</tspan></text><g id="Group-15" transform="translate(126 8.135)"><mask id="mask-2" fill="#fff"><use xlink:href="#path-1"/></mask></g><text id="d" font-family="HelveticaNeue-Light, Helvetica Neue" font-size="5.229" font-weight="300" fill="#FEFEFE"><tspan x="56.025" y="19.266">d</tspan></text><text id="u-" font-family="HelveticaNeue-Light, Helvetica Neue" font-size="5.229" font-weight="300" letter-spacing=".03" fill="#FEFEFE"><tspan x="59.267" y="19.266">u </tspan></text><text id="N" font-family="HelveticaNeue-Light, Helvetica Neue" font-size="5.229" font-weight="300" fill="#FEFEFE"><tspan x="63.842" y="19.266">N</tspan></text><text id="o" font-family="HelveticaNeue-Light, Helvetica Neue" font-size="5.229" font-weight="300" fill="#FEFEFE"><tspan x="67.769" y="19.266">o</tspan></text><text id="r" font-family="HelveticaNeue-Light, Helvetica Neue" font-size="5.229" font-weight="300" fill="#FEFEFE"><tspan x="70.927" y="19.266">r</tspan></text><text id="d" font-family="HelveticaNeue-Light, Helvetica Neue" font-size="5.229" font-weight="300" fill="#FEFEFE"><tspan x="72.763" y="19.266">d</tspan></text><text id="V" font-family="HelveticaNeue-Light, Helvetica Neue" font-size="5.229" font-weight="300" fill="#FEFEFE"><tspan x="77.526" y="19.266">V</tspan></text><text id="a" font-family="HelveticaNeue-Light, Helvetica Neue" font-size="5.229" font-weight="300" fill="#FEFEFE"><tspan x="80.658" y="19.266">a</tspan></text><text id="udois" font-family="HelveticaNeue-Light, Helvetica Neue" font-size="5.229" font-weight="300" letter-spacing=".048" fill="#FEFEFE"><tspan x="83.602" y="19.266">udoi</tspan> <tspan x="93.478" y="19.266">s</tspan></text></g></g></svg>