<?xml version="1.0" encoding="UTF-8"?>
<svg width="235px" height="56px" viewBox="0 0 235 56" version="1.1" xmlns="http://www.w3.org/2000/svg" xmlns:xlink="http://www.w3.org/1999/xlink">
    <!-- Generator: Sketch 40.2 (33826) - http://www.bohemiancoding.com/sketch -->
    <title>logo_ehnv_white</title>
    <desc>Created with Sketch.</desc>
    <defs></defs>
    <g id="Page-1" stroke="none" stroke-width="1" fill="none" fill-rule="evenodd">
        <g id="logo_ehnv_white" transform="translate(0.000000, -1.000000)">
            <g id="Group-13" transform="translate(0.000000, 0.253125)">
                <path d="M47.315625,14.6900625 L42.9375,14.6900625 C42.301875,14.6900625 41.780625,15.2113125 41.780625,15.8525625 L41.77875,25.6700625 L32.13375,25.6700625 L32.12625,15.8525625 C32.12625,15.2113125 31.603125,14.6900625 30.969375,14.6900625 L26.589375,14.6900625 C25.94625,14.6900625 25.425,15.2113125 25.425,15.8525625 L25.425,41.9600625 C25.425,42.6031875 25.94625,43.1244375 26.589375,43.1244375 L30.969375,43.1244375 C31.603125,43.1244375 32.12625,42.6013125 32.12625,41.9600625 L32.13375,31.1994375 L41.77875,31.1994375 L41.780625,41.9600625 C41.780625,42.6013125 42.301875,43.1244375 42.9375,43.1244375 L47.315625,43.1244375 C47.955,43.1244375 48.47625,42.6013125 48.47625,41.9619375 L48.47625,15.8525625 C48.47625,15.2113125 47.955,14.6900625 47.315625,14.6900625" id="Fill-1" fill="#FEFEFE"></path>
                <path d="M15.5308125,14.26425 C15.6076875,14.179875 23.6870625,6.14175 37.2433125,6.14175 C50.1958125,6.14175 57.9245625,14.408625 57.9901875,14.494875 C57.9001875,14.363625 48.5570625,1.623 37.0558125,1.623 C24.6826875,1.623 15.6301875,14.133 15.5308125,14.26425" id="Fill-3" fill="#FEFEFE"></path>
                <path d="M57.9915,43.6059375 C57.922125,43.6884375 49.839,51.7284375 36.28275,51.7284375 C23.3265,51.7284375 15.607125,43.4615625 15.532125,43.3734375 C15.6315,43.5028125 24.967125,56.2490625 36.468375,56.2490625 C48.850875,56.2490625 57.903375,43.7371875 57.9915,43.6059375" id="Fill-5" fill="#FEFEFE"></path>
                <path d="M12.53325,27.2908125 C12.39075,25.0051875 11.331375,23.0326875 8.691375,23.0326875 C6.051375,23.0326875 4.71825,24.8626875 4.5045,27.2908125 L12.53325,27.2908125 Z M15.69825,37.1139375 C13.977,38.0626875 12.002625,38.5558125 9.46575,38.5558125 C3.4845,38.5558125 0.00075,35.1058125 0.00075,29.1564375 C0.00075,23.9120625 2.7795,19.5826875 8.413875,19.5826875 C15.133875,19.5826875 17.037,24.1914375 17.037,30.5270625 L4.5045,30.5270625 C4.71825,33.4501875 6.760125,35.1058125 9.681375,35.1058125 C11.967,35.1058125 13.937625,34.2601875 15.69825,33.2758125 L15.69825,37.1139375 Z" id="Fill-7" fill="#FEFEFE"></path>
                <path d="M86.2441875,19.9749375 L81.8810625,33.1786875 L81.8098125,33.1786875 L77.3023125,19.9749375 L72.2360625,19.9749375 L72.6766875,21.1693125 C71.6791875,20.1755625 70.2691875,19.5999375 68.3960625,19.5999375 C65.9323125,19.5999375 63.9279375,20.4099375 62.4466875,22.4893125 L62.3773125,22.4893125 L62.3773125,20.0218125 L57.9035625,20.0218125 L57.9035625,38.1530625 L62.6248125,38.1530625 L62.6248125,29.2786875 C62.6248125,26.9593125 63.3616875,23.2618125 66.7760625,23.2618125 C69.8023125,23.2618125 69.8398125,26.2543125 69.8398125,28.4724375 L69.8398125,38.1530625 L74.5591875,38.1530625 L74.5591875,26.7118125 C74.5591875,26.5355625 74.5479375,26.3649375 74.5404375,26.1943125 L78.9598125,38.1043125 L84.2735625,38.1043125 L90.9616875,19.9749375 L86.2441875,19.9749375 Z" id="Fill-9" fill="#FEFEFE"></path>
                <path d="M97.4803125,19.93425 L97.4803125,38.09175" id="Stroke-11" stroke="#FEFEFE" stroke-width="0.209"></path>
            </g>
            <text id="E" font-family="HelveticaNeue-Light, Helvetica Neue" font-size="5.2288" font-weight="300" fill="#FEFEFE">
                <tspan x="105.047625" y="20.6376018">E</tspan>
            </text>
            <text id="t" font-family="HelveticaNeue-Light, Helvetica Neue" font-size="5.2288" font-weight="300" fill="#FEFEFE">
                <tspan x="111.312381" y="20.6376018">t</tspan>
            </text>
            <text id="a" font-family="HelveticaNeue-Light, Helvetica Neue" font-size="5.2288" font-weight="300" fill="#FEFEFE">
                <tspan x="114.861429" y="20.6376018">a</tspan>
            </text>
            <text id="b" font-family="HelveticaNeue-Light, Helvetica Neue" font-size="5.2288" font-weight="300" fill="#FEFEFE">
                <tspan x="120.635985" y="20.6376018">b</tspan>
            </text>
            <text id="l" font-family="HelveticaNeue-Light, Helvetica Neue" font-size="5.2288" font-weight="300" fill="#FEFEFE">
                <tspan x="126.920349" y="20.6376018">l</tspan>
            </text>
            <text id="i" font-family="HelveticaNeue-Light, Helvetica Neue" font-size="5.2288" font-weight="300" fill="#FEFEFE">
                <tspan x="129.381153" y="20.6376018">i</tspan>
            </text>
            <text id="s" font-family="HelveticaNeue-Light, Helvetica Neue" font-size="5.2288" font-weight="300" fill="#FEFEFE">
                <tspan x="131.851761" y="20.6376018">s</tspan>
            </text>
            <text id="s" font-family="HelveticaNeue-Light, Helvetica Neue" font-size="5.2288" font-weight="300" fill="#FEFEFE">
                <tspan x="137.263569" y="20.6376018">s</tspan>
            </text>
            <text id="e" font-family="HelveticaNeue-Light, Helvetica Neue" font-size="5.2288" font-weight="300" fill="#FEFEFE">
                <tspan x="142.626357" y="20.6376018">e</tspan>
            </text>
            <text id="m" font-family="HelveticaNeue-Light, Helvetica Neue" font-size="5.2288" font-weight="300" fill="#FEFEFE">
                <tspan x="148.420521" y="20.6376018">m</tspan>
            </text>
            <text id="e" font-family="HelveticaNeue-Light, Helvetica Neue" font-size="5.2288" font-weight="300" fill="#FEFEFE">
                <tspan x="157.253925" y="20.6376018">e</tspan>
            </text>
            <text id="n" font-family="HelveticaNeue-Light, Helvetica Neue" font-size="5.2288" font-weight="300" fill="#FEFEFE">
                <tspan x="163.048089" y="20.6376018">n</tspan>
            </text>
            <text id="t" font-family="HelveticaNeue-Light, Helvetica Neue" font-size="5.2288" font-weight="300" fill="#FEFEFE">
                <tspan x="168.891273" y="20.6376018">t</tspan>
            </text>
            <text id="s-" font-family="HelveticaNeue-Light, Helvetica Neue" font-size="5.2288" font-weight="300" letter-spacing="0.05" fill="#FEFEFE">
                <tspan x="172.361889" y="20.6376018">s </tspan>
            </text>
            <text id="H" font-family="HelveticaNeue-Light, Helvetica Neue" font-size="5.2288" font-weight="300" fill="#FEFEFE">
                <tspan x="180.783525" y="20.6376018">H</tspan>
            </text>
            <text id="o" font-family="HelveticaNeue-Light, Helvetica Neue" font-size="5.2288" font-weight="300" fill="#FEFEFE">
                <tspan x="188.342409" y="20.6376018">o</tspan>
            </text>
            <text id="s" font-family="HelveticaNeue-Light, Helvetica Neue" font-size="5.2288" font-weight="300" fill="#FEFEFE">
                <tspan x="194.430693" y="20.6376018">s</tspan>
            </text>
            <text id="p" font-family="HelveticaNeue-Light, Helvetica Neue" font-size="5.2288" font-weight="300" fill="#FEFEFE">
                <tspan x="199.813089" y="20.6376018">p</tspan>
            </text>
            <text id="i" font-family="HelveticaNeue-Light, Helvetica Neue" font-size="5.2288" font-weight="300" fill="#FEFEFE">
                <tspan x="206.097453" y="20.6376018">i</tspan>
            </text>
            <text id="t" font-family="HelveticaNeue-Light, Helvetica Neue" font-size="5.2288" font-weight="300" fill="#FEFEFE">
                <tspan x="208.587669" y="20.6376018">t</tspan>
            </text>
            <text id="a" font-family="HelveticaNeue-Light, Helvetica Neue" font-size="5.2288" font-weight="300" fill="#FEFEFE">
                <tspan x="212.136717" y="20.6376018">a</tspan>
            </text>
            <text id="l" font-family="HelveticaNeue-Light, Helvetica Neue" font-size="5.2288" font-weight="300" fill="#FEFEFE">
                <tspan x="217.901469" y="20.6376018">l</tspan>
            </text>
            <text id="i" font-family="HelveticaNeue-Light, Helvetica Neue" font-size="5.2288" font-weight="300" fill="#FEFEFE">
                <tspan x="220.352469" y="20.6376018">i</tspan>
            </text>
            <text id="e" font-family="HelveticaNeue-Light, Helvetica Neue" font-size="5.2288" font-weight="300" fill="#FEFEFE">
                <tspan x="222.842685" y="20.6376018">e</tspan>
            </text>
            <text id="r" font-family="HelveticaNeue-Light, Helvetica Neue" font-size="5.2288" font-weight="300" fill="#FEFEFE">
                <tspan x="228.627045" y="20.6376018">r</tspan>
            </text>
            <text id="s" font-family="HelveticaNeue-Light, Helvetica Neue" font-size="5.2288" font-weight="300" fill="#FEFEFE">
                <tspan x="232.401585" y="20.6376018">s</tspan>
            </text>
            <text id="d" font-family="HelveticaNeue-Light, Helvetica Neue" font-size="5.2288" font-weight="300" fill="#FEFEFE">
                <tspan x="105.047625" y="31.7484768">d</tspan>
            </text>
            <text id="u-" font-family="HelveticaNeue-Light, Helvetica Neue" font-size="5.2288" font-weight="300" letter-spacing="0.03" fill="#FEFEFE">
                <tspan x="111.126105" y="31.7484768">u </tspan>
            </text>
            <text id="N" font-family="HelveticaNeue-Light, Helvetica Neue" font-size="5.2288" font-weight="300" fill="#FEFEFE">
                <tspan x="119.704605" y="31.7484768">N</tspan>
            </text>
            <text id="o" font-family="HelveticaNeue-Light, Helvetica Neue" font-size="5.2288" font-weight="300" fill="#FEFEFE">
                <tspan x="127.067409" y="31.7484768">o</tspan>
            </text>
            <text id="r" font-family="HelveticaNeue-Light, Helvetica Neue" font-size="5.2288" font-weight="300" fill="#FEFEFE">
                <tspan x="132.989025" y="31.7484768">r</tspan>
            </text>
            <text id="d" font-family="HelveticaNeue-Light, Helvetica Neue" font-size="5.2288" font-weight="300" fill="#FEFEFE">
                <tspan x="136.430229" y="31.7484768">d</tspan>
            </text>
            <text id="-" font-family="HelveticaNeue-Light, Helvetica Neue" font-size="5.2288" font-weight="300"></text>
            <text id="V" font-family="HelveticaNeue-Light, Helvetica Neue" font-size="5.2288" font-weight="300" fill="#FEFEFE">
                <tspan x="145.361673" y="31.7484768">V</tspan>
            </text>
            <text id="a" font-family="HelveticaNeue-Light, Helvetica Neue" font-size="5.2288" font-weight="300" fill="#FEFEFE">
                <tspan x="151.234269" y="31.7484768">a</tspan>
            </text>
            <text id="udois" font-family="HelveticaNeue-Light, Helvetica Neue" font-size="5.2288" font-weight="300" letter-spacing="0.048" fill="#FEFEFE">
                <tspan x="156.753921" y="31.7484768">udoi</tspan>
                <tspan x="166.629659" y="31.7484768">s</tspan>
            </text>
        </g>
    </g>
</svg>
