<?xml version="1.0" standalone="no"?>
<!DOCTYPE svg PUBLIC "-//W3C//DTD SVG 20010904//EN"
 "http://www.w3.org/TR/2001/REC-SVG-20010904/DTD/svg10.dtd">
<svg version="1.0" xmlns="http://www.w3.org/2000/svg"
 width="119.000000pt" height="119.000000pt" viewBox="0 0 119.000000 119.000000"
 preserveAspectRatio="xMidYMid meet">
<metadata>
Created by potrace 1.11, written by Peter Selinger 2001-2013
</metadata>
<g transform="translate(0.000000,119.000000) scale(0.100000,-0.100000)"
fill="#000000" stroke="none">
<path d="M517 1179 c-99 -20 -198 -76 -301 -170 -67 -61 -73 -80 -12 -38 115
77 240 113 396 113 157 0 256 -31 385 -121 l50 -36 -30 33 c-160 175 -329 251
-488 219z"/>
<path d="M346 885 c-9 -25 -7 -568 3 -583 5 -9 27 -12 72 -10 l64 3 3 123 3
122 104 0 104 0 3 -122 3 -123 64 -3 c45 -2 67 1 72 10 10 15 12 541 3 576 -6
21 -11 23 -73 20 l-66 -3 -3 -117 -3 -118 -104 0 -104 0 -3 118 -3 117 -66 3
c-54 2 -68 0 -73 -13z"/>
<path d="M1004 235 c-43 -34 -158 -90 -229 -111 -45 -14 -93 -19 -190 -19
-116 0 -139 3 -211 28 -44 15 -110 47 -147 71 -54 35 -63 39 -50 19 29 -44
147 -134 232 -176 81 -40 88 -42 175 -41 146 1 270 61 401 193 63 65 69 76 19
36z"/>
</g>
</svg>
