<svg viewBox="0 0 190 123" xmlns="http://www.w3.org/2000/svg" xmlns:xlink="http://www.w3.org/1999/xlink"><title>logo_Hmag</title><defs><path id="path-1" d="M65.662 23.818V.475H.225v23.343z"/></defs><g id="Page-1" fill="none" fill-rule="evenodd"><g id="logo_Hmag"><g id="Group-3" transform="translate(124 31.246)"><g id="Fill-1-Clipped"><mask id="mask-2" fill="#fff"><use xlink:href="#path-1"/></mask><path d="M19.537 1.256a5.67 5.67 0 0 1 1.97 2.063v13.625h-4V4.756a3.12 3.12 0 0 0-.75-.344 3.77 3.77 0 0 0-.845-.093c-.812 0-1.52.29-2.125.875-.604.604-.906 1.323-.906 2.156h-.03v9.594H8.848V4.756a3.086 3.086 0 0 0-.75-.344 3.762 3.762 0 0 0-.843-.093c-.834 0-1.552.29-2.157.875a2.999 2.999 0 0 0-.875 2.156v9.594H.225v-16h3.656c.187.687.323 1.198.406 1.53a5.048 5.048 0 0 1 1.594-1.437C6.526.662 7.297.475 8.193.475c.854 0 1.656.198 2.406.594.771.395 1.386.916 1.844 1.562a6.531 6.531 0 0 1 1.813-1.562c.73-.396 1.541-.594 2.437-.594 1.042 0 1.99.26 2.844.78zm20.406 15.688h-.937c-.77 0-1.469-.157-2.094-.47a4.847 4.847 0 0 1-1.625-1.25c-.5.647-1.167 1.178-2 1.595a5.921 5.921 0 0 1-2.625.593c-1.187 0-2.208-.24-3.062-.718-.834-.46-1.636-1.105-2.407-1.938V9.444c.48-.626 1.261-1.084 2.344-1.376a45.204 45.204 0 0 1 3.125-.656c1.708-.27 2.72-.583 3.031-.937.333-.375.5-.73.5-1.063 0-.48-.25-.843-.75-1.093-.52-.271-1.208-.407-2.062-.407-.48 0-.896.063-1.25.188a3.281 3.281 0 0 0-.906.406c-.48.292-.803.604-.969.937l-.28.532a137.37 137.37 0 0 1-3.127-1.813 6.943 6.943 0 0 1 2.313-2.656C28.183.819 29.59.475 31.382.475c2.27 0 3.968.479 5.092 1.437 1.146.959 1.72 2.323 1.72 4.094v5.656c0 .459.155.834.468 1.125.312.313.687.469 1.125.469h.156v3.688zm-6.625-3.657c.583-.458.875-1.25.875-2.375V9.63c-.75.438-1.667.688-2.75.75-1.062.063-1.937.302-2.625.719v2.062c.375.25.771.448 1.188.594.416.146.854.219 1.312.219.771 0 1.438-.23 2-.688zM55.35 4.319c.083.27.145.552.187.843.042.313.063.625.063.938 0 1.875-.636 3.27-1.907 4.187-1.25.938-2.802 1.407-4.656 1.407-.333 0-.667-.011-1-.032a10.598 10.598 0 0 1-.938-.156c-.25.354-.239.677.032.969.27.292.875.437 1.812.437h.844c1.542 0 2.896.146 4.063.438 1.166.292 2.083 1.01 2.75 2.156v5.78c-.75.876-1.75 1.512-3 1.907-1.23.417-2.5.625-3.813.625a9.1 9.1 0 0 1-2-.218 7.866 7.866 0 0 1-1.875-.594c-1.083-.5-1.969-1.188-2.656-2.063-.709-.875-1.063-1.885-1.063-3.031 0-.354.042-.667.125-.937.104-.292.23-.542.375-.75.25-.396.521-.698.813-.906l.437-.282c-.75-.687-.989-1.468-.719-2.343a4.192 4.192 0 0 1 1.532-2.157A4.542 4.542 0 0 1 43.1 8.756c-.395-.75-.593-1.635-.593-2.656 0-1.896.625-3.313 1.875-4.25C45.631.933 47.183.475 49.037.475c.542 0 1.062.03 1.562.094.5.083.97.208 1.407.375h4.687v3.375H55.35zM50.974 7.88c.521-.5.782-1.094.782-1.781 0-.708-.26-1.323-.782-1.844a2.756 2.756 0 0 0-1.937-.75c-.729 0-1.365.25-1.906.75-.52.52-.782 1.136-.782 1.844 0 .687.261 1.28.782 1.78.541.522 1.177.782 1.906.782.75 0 1.396-.26 1.937-.781zm-3.843 8.28l-.594-.092-.406.437c-.292.292-.438.76-.438 1.406 0 .625.333 1.229 1 1.813.646.562 1.698.843 3.156.843.75 0 1.365-.083 1.844-.25.48-.145.854-.333 1.125-.562v-2.937c-.27-.167-.646-.302-1.125-.407-.479-.104-1.114-.156-1.906-.156-1.396 0-2.28-.031-2.656-.094zm13.594.595c-.542-.562-.813-1.25-.813-2.062 0-.792.271-1.47.813-2.032.562-.562 1.25-.843 2.062-.843.792 0 1.47.28 2.031.843a2.77 2.77 0 0 1 .844 2.032c0 .812-.28 1.5-.844 2.062a2.82 2.82 0 0 1-2.03.812c-.813 0-1.5-.27-2.063-.812z" id="Fill-1" fill="#FFF" fill-rule="nonzero" mask="url(#mask-2)"/></g></g><path id="Fill-4" fill="#FFF" fill-rule="nonzero" d="M72.588 0v44.333H37.897V0H0v122.246h37.897V78.369h34.69v43.877h37.898V0z"/></g></g></svg>