<svg xmlns="http://www.w3.org/2000/svg" fill="none" viewBox="0 0 35 35">
  <path fill="#fff" d="M33.7931 2.41379h-1.2069v1.20689c0 .64018-.2543 1.25414-.707 1.70681-.4527.45268-1.0666.70699-1.7068.70699-.6402 0-1.2541-.25431-1.7068-.70699-.4527-.45267-.707-1.06663-.707-1.70681V2.41379h-3.6207v1.20689c0 .64018-.2543 1.25414-.707 1.70681-.4526.45268-1.0666.70699-1.7068.70699-.6401 0-1.2541-.25431-1.7068-.70699-.4526-.45267-.707-1.06663-.707-1.70681V2.41379h-3.6206v1.20689c0 .64018-.2544 1.25414-.707 1.70681-.4527.45268-1.0667.70699-1.7068.70699-.6402 0-1.2542-.25431-1.7068-.70699-.4527-.45267-.707-1.06663-.707-1.70681V2.41379H7.24138v1.20689c0 .64018-.25431 1.25414-.70698 1.70681-.45268.45268-1.06664.70699-1.70681.70699-.64018 0-1.25414-.25431-1.70681-.70699-.45268-.45267-.70699-1.06663-.70699-1.70681V2.41379H1.2069c-.320092 0-.627071.12715-.853408.35349S0 3.3006 0 3.62068v4.82759h35V3.62068c0-.32008-.1272-.62706-.3535-.8534-.2263-.22634-.5333-.35349-.8534-.35349z"/>
  <path fill="#fff" d="M6.0344 1.2069C6.0344.540346 5.49405 0 4.8275 0c-.66655 0-1.20689.540346-1.20689 1.2069v2.41379c0 .66655.54034 1.2069 1.20689 1.2069s1.2069-.54035 1.2069-1.2069V1.2069zM22.9309 1.2069C22.9309.540346 22.3905 0 21.724 0c-.6666 0-1.2069.540346-1.2069 1.2069v2.41379c0 .66655.5403 1.2069 1.2069 1.2069.6665 0 1.2069-.54035 1.2069-1.2069V1.2069zM14.4826 1.2069C14.4826.540346 13.9423 0 13.2757 0c-.6665 0-1.2069.540346-1.2069 1.2069v2.41379c0 .66655.5404 1.2069 1.2069 1.2069.6666 0 1.2069-.54035 1.2069-1.2069V1.2069zM31.3791 1.2069C31.3791.540346 30.8388 0 30.1722 0c-.6665 0-1.2069.540346-1.2069 1.2069v2.41379c0 .66655.5404 1.2069 1.2069 1.2069.6666 0 1.2069-.54035 1.2069-1.2069V1.2069zM0 33.7931c0 .3201.127155.6271.353492.8534.226337.2264.533316.3535.853408.3535h32.5862c.3201 0 .6271-.1271.8534-.3535.2263-.2263.3535-.5333.3535-.8534V9.65518H0V33.7931zm4.22414-18.1034c0-.4802.19073-.9406.53024-1.2801.3395-.3395.79997-.5303 1.2801-.5303H28.9655c.4802 0 .9406.1908 1.2801.5303s.5303.7999.5303 1.2801v13.2758c0 .4802-.1908.9406-.5303 1.2801s-.7999.5303-1.2801.5303H6.03448c-.48013 0-.9406-.1908-1.2801-.5303-.33951-.3395-.53024-.7999-.53024-1.2801V15.6897z"/>
  <path fill="#fff" d="M7.24121 16.8965h5.43099v3.6207H7.24121v-3.6207zM22.3276 27.1552h6.0345v1.2069h-6.0345v-1.2069zM24.7412 23.5345h3.6207v1.2069h-3.6207v-1.2069zM18.707 23.5345h3.6207v1.2069H18.707v-1.2069zM12.6724 23.5345h3.6207v1.2069h-3.6207v-1.2069zM6.63818 23.5345h3.62072v1.2069H6.63818v-1.2069zM6.63818 27.1552h3.62072v1.2069H6.63818v-1.2069zM11.4653 27.1552h3.6207v1.2069h-3.6207v-1.2069z"/>
</svg>
