<svg xmlns="http://www.w3.org/2000/svg" class="covid-svg" viewBox="0 0 100 145">
  <g fill="#FFF" fill-rule="evenodd">
    <g fill-rule="nonzero">
      <path d="M75.92 36.85c0 4.65 3.77 8.42 8.42 8.42s8.42-3.77 8.42-8.42c0-4.66-3.77-8.42-8.42-8.42s-8.42 3.77-8.42 8.42zm4.03 0c0-2.43 1.96-4.39 4.39-4.39 2.43 0 4.39 1.97 4.39 4.39 0 2.43-1.97 4.39-4.39 4.39-2.43 0-4.39-1.97-4.39-4.39zM14.02 37.08c0 4.65 3.77 8.42 8.42 8.42s8.42-3.77 8.42-8.42c0-4.66-3.77-8.42-8.42-8.42s-8.42 3.76-8.42 8.42zm4.02 0c0-2.43 1.96-4.39 4.39-4.39 2.43 0 4.39 1.97 4.39 4.39 0 2.43-1.97 4.39-4.39 4.39s-4.39-1.97-4.39-4.39z"/>
      <path d="M5.26 34.73s1.77 2.86 3.65 3.06h3.79c-.05-.39-.08-.79-.08-1.2 0-5.4 4.38-9.77 9.77-9.77s9.77 4.37 9.77 9.77c0 .4-.03.8-.08 1.2h42.57c-.05-.39-.08-.79-.08-1.2 0-5.4 4.38-9.77 9.77-9.77 5.4 0 9.77 4.37 9.77 9.77 0 .4-.03.8-.08 1.2h.45s2.57-.1 2.66-2.76c0 0 2.66.3 2.66-1.38 0 0 .59-1.97-1.68-2.17 0 0 .69-6.22-2.76-9.67 0 0-3.46-4.64-19.84-5.33 0 0-8.19-10.07-9.57-10.76 0 0-1.97-1.48-3.75-1.68H34.68s-6.91-.59-11.45 3.75c0 0-7.4 6.97-8.98 10.4 0 0-7.89 5.59-9.08 12.7 0 0-2.37.69-2.56 1.97-.02 0-.51 1.68 2.65 1.87zm39.87-11.6c0-.35.29-.64.64-.64h2.96c.35 0 .64.29.64.64 0 .35-.29.64-.64.64h-2.96c-.35.01-.64-.28-.64-.64zM43.16 9.74c.15-3.11 3.48-2.44 3.48-2.44l12.73-.06c2 0 3.85 2.13 3.85 2.13l3.7 4.66c2.89 3.63-1.33 3.33-1.33 3.33H45.97c-2.07 0-2.81-1.7-2.81-1.7V9.74zm-19.1 4.88c4.37-8.52 14.66-7.39 14.66-7.39 1.41.09 1.63 1.32 1.63 1.32v7.03c-.15 2.07-1.63 1.78-1.63 1.78H26.51c-3.79-.58-2.45-2.74-2.45-2.74zM63.13 1.98c0 .71-.45 1.28-.99 1.28H30.77c-.55 0-1-.57-1-1.28 0-.71.45-1.28 1-1.28h31.38c.54-.01.98.57.98 1.28z"/>
    </g>
    <path d="M57.87 85.17c-.5 4.05-4.19 6.92-8.24 6.42s-6.92-4.19-6.42-8.24 4.19-6.92 8.24-6.42 6.93 4.19 6.42 8.24M45.17 92.79l8.67 1.16c1.73 0 2.89 1.73 2.89 3.47-.87 6.94-.58 11.28 5.2 15.62 2.89 2.31-.29 6.65-3.18 4.34-1.73-1.16-2.89-2.6-4.05-4.05-.29 1.73-.58 3.47-2.6 4.05 5.78 6.36 9.83 14.46 10.99 22.85.58 4.34-6.36 5.2-6.94.87-.58-6.07-3.18-11.86-6.94-16.77-2.6 6.65-6.07 12.72-10.7 18.51-2.89 3.47-8.1-.87-5.2-4.34 4.92-6.07 8.1-12.72 10.7-19.66-1.73-1.73-4.92-3.76-4.63-6.07l1.45-11.57c-3.47 2.89-5.5 6.36-5.78 11.28-.29 3.76-5.78 3.47-5.5-.29.58-9.25 5.78-15.04 13.59-19.09.58-.31 1.16-.6 2.03-.31z"/>
    <path fill-rule="nonzero" d="M0 65h100v2H0z"/>
  </g>
</svg>
