<svg xmlns="http://www.w3.org/2000/svg" fill="none" viewBox="0 0 34 34">
  <path fill="#fff" d="M17 6.50781C11.2146 6.50781 6.50781 11.2146 6.50781 17c0 5.7854 4.70679 10.4922 10.49219 10.4922 5.7854 0 10.4922-4.7068 10.4922-10.4922S22.7854 6.50781 17 6.50781zm.9961 11.48829h-6.7734v-1.9922h4.7812V8.25642h1.9922v9.73968z"/>
  <path fill="#fff" d="M29.0208 4.97917C25.81 1.76833 21.5408 0 17 0 12.4592 0 8.19002 1.76833 4.97917 4.97917 1.76833 8.19002 0 12.4592 0 17s1.76833 8.81 4.97917 12.0208C8.19002 32.2317 12.4592 34 17 34s8.81-1.7683 12.0208-4.9792C32.2317 25.81 34 21.5408 34 17c0-4.5408-1.7683-8.80998-4.9792-12.02083zM17 29.4844c-6.8839 0-12.48438-5.6005-12.48438-12.4844C4.51562 10.1161 10.1161 4.51562 17 4.51562S29.4844 10.1161 29.4844 17 23.8839 29.4844 17 29.4844z"/>
</svg>
