<?xml version="1.0" encoding="UTF-8" standalone="no"?>
<svg width="129px" height="129px" viewBox="0 0 129 129" version="1.1" xmlns="http://www.w3.org/2000/svg" xmlns:xlink="http://www.w3.org/1999/xlink" xmlns:sketch="http://www.bohemiancoding.com/sketch/ns">
    <!-- Generator: Sketch 3.5.2 (25235) - http://www.bohemiancoding.com/sketch -->
    <title>clock</title>
    <desc>Created with Sketch.</desc>
    <defs></defs>
    <g id="Page-1" stroke="none" stroke-width="1" fill="none" fill-rule="evenodd" sketch:type="MSPage">
        <g id="clock" sketch:type="MSLayerGroup" fill="#000000">
            <path d="M81.75891,94.15194 C80.51406,94.15194 79.28856,93.54564 78.54036,92.42979 L61.28016,66.65559 C60.86091,66.01704 60.62871,65.26239 60.62871,64.50129 L60.62871,21.49914 C60.62871,19.36419 62.36376,17.62914 64.49871,17.62914 C66.63366,17.62914 68.36871,19.36419 68.36871,21.49914 L68.36871,63.32739 L84.97101,88.12119 C86.16426,89.90139 85.68051,92.30079 83.90676,93.48759 C83.24241,93.93264 82.50066,94.15194 81.75891,94.15194" id="Fill-1" sketch:type="MSShapeGroup"></path>
            <path d="M64.5,6.45 C96.5049,6.45 122.55,32.4951 122.55,64.5 C122.55,96.51135 96.5049,122.55 64.49355,122.55 C32.4951,122.55 6.45,96.51135 6.45,64.5 C6.45,32.4951 32.4951,6.45 64.5,6.45 M64.5,0 C28.87665,0 0,28.87665 0,64.5 C0,100.12335 28.87665,129 64.5,129 C100.12335,129 129,100.12335 129,64.5 C129,28.87665 100.12335,0 64.5,0" id="Fill-3" sketch:type="MSShapeGroup"></path>
        </g>
    </g>
</svg>