<?xml version="1.0" encoding="UTF-8" standalone="no"?>
<svg width="42px" height="42px" viewBox="0 0 42 42" version="1.1" xmlns="http://www.w3.org/2000/svg" xmlns:xlink="http://www.w3.org/1999/xlink" xmlns:sketch="http://www.bohemiancoding.com/sketch/ns">
    <!-- Generator: Sketch 3.5.2 (25235) - http://www.bohemiancoding.com/sketch -->
    <title>instagram</title>
    <desc>Created with Sketch.</desc>
    <defs></defs>
    <g id="Page-1" stroke="none" stroke-width="1" fill="none" fill-rule="evenodd" sketch:type="MSPage">
        <path d="M37.7998,9.4502 C37.7998,10.0802 37.3798,10.5002 36.7498,10.5002 L32.5498,10.5002 C31.9198,10.5002 31.4998,10.0802 31.4998,9.4502 L31.4998,5.2502 C31.4998,4.6202 31.9198,4.2002 32.5498,4.2002 L36.7498,4.2002 C37.3798,4.2002 37.7998,4.6202 37.7998,5.2502 L37.7998,9.4502 Z M5.2498,37.8002 C4.6198,37.8002 4.1998,37.3802 4.1998,36.7502 L4.1998,18.9002 L8.6098,18.9002 C8.3998,19.5302 8.3998,20.3702 8.3998,21.0002 C8.3998,27.9292 14.0698,33.5992 20.9998,33.5992 C27.9298,33.5992 33.5998,27.9292 33.5998,21.0002 C33.5998,20.3702 33.5998,19.5302 33.3898,18.9002 L37.7998,18.9002 L37.7998,36.7502 C37.7998,37.3802 37.3798,37.8002 36.7498,37.8002 L5.2498,37.8002 Z M20.9998,12.5992 C25.6198,12.5992 29.3998,16.3802 29.3998,21.0002 C29.3998,25.6202 25.6198,29.4002 20.9998,29.4002 C16.3798,29.4002 12.5998,25.6202 12.5998,21.0002 C12.5998,16.3802 16.3798,12.5992 20.9998,12.5992 L20.9998,12.5992 Z M37.7998,0.0002 L4.1998,0.0002 C1.8898,0.0002 -0.0002,1.8892 -0.0002,4.2002 L-0.0002,37.8002 C-0.0002,40.1102 1.8898,42.0002 4.1998,42.0002 L37.7998,42.0002 C40.1098,42.0002 41.9998,40.1102 41.9998,37.8002 L41.9998,4.2002 C41.9998,1.8892 40.1098,0.0002 37.7998,0.0002 L37.7998,0.0002 Z" id="instagram" fill="#000000" sketch:type="MSShapeGroup"></path>
    </g>
</svg>