<?xml version="1.0" encoding="UTF-8" standalone="no"?>
<svg width="45px" height="45px" viewBox="0 0 45 45" version="1.1" xmlns="http://www.w3.org/2000/svg" xmlns:xlink="http://www.w3.org/1999/xlink" xmlns:sketch="http://www.bohemiancoding.com/sketch/ns">
    <!-- Generator: Sketch 3.5.2 (25235) - http://www.bohemiancoding.com/sketch -->
    <title>linkedin</title>
    <desc>Created with Sketch.</desc>
    <defs></defs>
    <g id="Page-1" stroke="none" stroke-width="1" fill="none" fill-rule="evenodd" sketch:type="MSPage">
        <g id="linkedin" sketch:type="MSLayerGroup" fill="#000000">
            <path d="M0.253,14.05 L9.874,14.05 L9.874,45 L0.253,45 L0.253,14.05 Z M10.189,5.441 C10.189,8.099 8.228,10.252 4.999,10.252 C1.962,10.252 0,8.1 0,5.441 C0,2.72 2.025,0.631 5.126,0.631 C8.228,0.631 10.127,2.72 10.189,5.441 L10.189,5.441 Z" id="Fill-1" sketch:type="MSShapeGroup"></path>
            <path d="M15.6309,23.9229 C15.6309,20.0629 15.5049,16.8349 15.3789,14.0499 L23.7329,14.0499 L24.1769,18.3539 L24.3669,18.3539 C25.6319,16.3269 28.7339,13.3529 33.9239,13.3529 C40.2529,13.3529 44.9999,17.5939 44.9999,26.7069 L44.9999,44.9999 L35.3789,44.9999 L35.3789,27.8469 C35.3789,23.8599 33.9859,21.1389 30.5049,21.1389 C27.8469,21.1389 26.2659,22.9739 25.5689,24.7459 C25.3159,25.3789 25.2519,26.2649 25.2519,27.1519 L25.2519,44.9999 L15.6309,44.9999 L15.6309,23.9229 Z" id="Fill-3" sketch:type="MSShapeGroup"></path>
        </g>
    </g>
</svg>