<?xml version="1.0" encoding="UTF-8" standalone="no"?>
<svg width="15px" height="9px" viewBox="0 0 15 9" version="1.1" xmlns="http://www.w3.org/2000/svg" xmlns:xlink="http://www.w3.org/1999/xlink" xmlns:sketch="http://www.bohemiancoding.com/sketch/ns">
    <!-- Generator: Sketch 3.5.2 (25235) - http://www.bohemiancoding.com/sketch -->
    <title>long-arrow-right</title>
    <desc>Created with Sketch.</desc>
    <defs></defs>
    <g id="Page-1" stroke="none" stroke-width="1" fill="none" fill-rule="evenodd" sketch:type="MSPage">
        <path d="M0,4.41375 C0,4.63475 0.179,4.81375 0.401,4.81375 L13.688,4.81375 L10.25,8.25075 C10.172,8.32975 10.134,8.43175 10.134,8.53375 C10.134,8.63575 10.172,8.73975 10.25,8.81675 C10.407,8.97275 10.661,8.97275 10.817,8.81675 L14.882,4.75175 C15.039,4.59575 15.039,4.34175 14.882,4.18575 L10.816,0.11775 C10.66,-0.03925 10.406,-0.03925 10.25,0.11775 C10.093,0.27375 10.093,0.52775 10.25,0.68375 L13.58,4.01375 L0.401,4.01375 C0.179,4.01375 0,4.19275 0,4.41375" id="long-arrow-right" fill="#000000" sketch:type="MSShapeGroup"></path>
    </g>
</svg>