<?xml version="1.0" encoding="UTF-8" standalone="no"?>
<svg width="18px" height="22px" viewBox="0 0 18 22" version="1.1" xmlns="http://www.w3.org/2000/svg" xmlns:xlink="http://www.w3.org/1999/xlink" xmlns:sketch="http://www.bohemiancoding.com/sketch/ns">
    <!-- Generator: Sketch 3.5.2 (25235) - http://www.bohemiancoding.com/sketch -->
    <title>phone</title>
    <desc>Created with Sketch.</desc>
    <defs></defs>
    <g id="Page-1" stroke="none" stroke-width="1" fill="none" fill-rule="evenodd" sketch:type="MSPage">
        <path d="M0.1167,4.4912 C0.3357,3.1222 1.0077,2.0162 2.0267,1.1102 C4.0667,-0.6968 6.1297,-0.0158 6.6237,2.6562 C6.9687,4.5572 7.7227,6.5552 5.4497,7.9402 C4.6637,8.4222 5.0287,9.2522 5.2907,9.9512 C5.9327,11.6152 6.8877,13.0712 8.1217,14.3602 C9.4507,15.7442 10.7687,16.7512 12.5597,14.9642 C13.2267,14.3042 14.0307,14.4702 14.7487,15.0572 C15.1917,15.4272 15.6967,15.7542 16.1237,16.1512 C16.9347,16.9132 18.3107,17.3812 17.9367,18.8782 C17.5347,20.4172 16.4317,21.3392 14.8927,21.7362 C13.7267,22.0292 12.5707,22.1772 11.4437,21.6432 C4.9777,18.5802 1.3667,13.3772 0.0487,6.4672 C-0.0183,6.1022 -0.0003,5.7242 0.0107,5.3672 C0.0197,5.0822 0.0807,4.7822 0.1167,4.4912" id="phone" fill="#000000" sketch:type="MSShapeGroup"></path>
    </g>
</svg>