<?xml version="1.0" encoding="UTF-8" standalone="no"?>
<svg width="35px" height="51px" viewBox="0 0 35 51" version="1.1" xmlns="http://www.w3.org/2000/svg" xmlns:xlink="http://www.w3.org/1999/xlink" xmlns:sketch="http://www.bohemiancoding.com/sketch/ns">
    <!-- Generator: Sketch 3.5.2 (25235) - http://www.bohemiancoding.com/sketch -->
    <title>pin</title>
    <desc>Created with Sketch.</desc>
    <defs></defs>
    <g id="Page-1" stroke="none" stroke-width="1" fill="none" fill-rule="evenodd" sketch:type="MSPage">
        <path d="M17.2031,0.207 C7.7011,0.207 0.0001,7.911 0.0001,17.41 C0.0001,17.614 0.0041,17.821 0.0151,18.029 C0.0781,19.836 0.4201,21.572 0.9991,23.196 C4.6681,35.262 17.2031,51 17.2031,51 C17.2031,51 29.7341,35.262 33.4061,23.199 C33.9851,21.575 34.3261,19.839 34.3901,18.029 C34.4011,17.821 34.4061,17.614 34.4061,17.41 C34.4061,7.911 26.7051,0.207 17.2031,0.207 M17.2031,25.836 C12.5491,25.836 8.7771,22.064 8.7771,17.41 C8.7771,12.757 12.5491,8.985 17.2031,8.985 C21.8551,8.985 25.6271,12.757 25.6271,17.41 C25.6271,22.064 21.8551,25.836 17.2031,25.836" id="pin" fill="#000000" sketch:type="MSShapeGroup"></path>
    </g>
</svg>