<?xml version="1.0" encoding="UTF-8"?>
<svg width="758px" height="884px" viewBox="0 0 758 884" version="1.1" xmlns="http://www.w3.org/2000/svg" xmlns:xlink="http://www.w3.org/1999/xlink">
    <!-- Generator: Sketch 40.1 (33804) - http://www.bohemiancoding.com/sketch -->
    <title>placeholder-f</title>
    <desc>Created with Sketch.</desc>
    <defs></defs>
    <g id="Page-1" stroke="none" stroke-width="1" fill="none" fill-rule="evenodd">
        <g id="placeholder-f">
            <path d="M205.09,257.5 L205.09,257.76 L205.09,257.41 C205.09,257.29 205.09,257.5 205.09,257.5 L205.09,257.5 Z" id="Shape"></path>
            <path d="M210.59,214.92 L210.59,214.92 L210.89,213.73 C210.8,214.12 210.69,214.5 210.59,214.92 L210.59,214.92 Z" id="Shape"></path>
            <path d="M531.16,698.5 C531.155955,709.280738 537.647537,719.001996 547.606866,723.129474 C557.566196,727.256952 569.031261,724.977527 576.654394,717.354394 C584.277527,709.731261 586.556952,698.266196 582.429474,688.306866 C578.301996,678.347537 568.580738,671.855955 557.8,671.86 C543.089421,671.865519 531.165519,683.789421 531.16,698.5 L531.16,698.5 Z" id="Shape"></path>
            <polygon id="Shape" fill="#CBFF38" points="211.08 213.04 210.91 213.72 211.1 213.02"></polygon>
            <path d="M205.09,258.88 L205.09,259 L205.09,257.78 L205.09,258.88 L205.09,258.88 Z" id="Shape" fill="#CBFF38"></path>
            <path d="M531.16,698.5 C531.155955,709.280738 537.647537,719.001996 547.606866,723.129474 C557.566196,727.256952 569.031261,724.977527 576.654394,717.354394 C584.277527,709.731261 586.556952,698.266196 582.429474,688.306866 C578.301996,678.347537 568.580738,671.855955 557.8,671.86 C543.089421,671.865519 531.165519,683.789421 531.16,698.5 L531.16,698.5 Z" id="Shape"></path>
            <path d="M602.1,507.65 C603.67,500.3 605.37,492.51 607.1,484.39 C619.04,429.84 635.39,355.13 638.1,282.39 C639.59,242.39 636.77,206.26 629.72,175.06 C621.4,138.23 606.9,106.78 586.62,81.58 C543.62,28.1 473.4,0.98 378.05,0.98 C330.48,0.98 288.82,7.77 254.24,21.16 C221.99,33.68 194.91,52.27 173.91,76.43 C91.44,171.2 114.03,333.16 130.52,451.43 C133.9,475.65 137.1,498.63 138.96,518.22 C-26.44,638.88 -3.09,836.5 7.63,883.5 L748.56,883.5 C783.08,733.5 718.24,587.85 602.1,507.65 L602.1,507.65 Z M153.31,448.25 C137.43,334.37 115.68,178.4 191.31,91.54 C209.86,70.23 233.85,53.77 262.62,42.63 C294.54,30.27 333.4,24.01 378.12,24.01 C424.51,24.01 464.57,30.73 497.18,44.01 C526.45,55.9 550.54,73.41 568.77,96.07 C586.83,118.51 599.77,146.82 607.35,180.19 C613.96,209.45 616.59,243.57 615.18,281.6 C612.56,352.26 596.46,425.81 584.7,479.51 C583.58,484.623333 582.493333,489.596667 581.44,494.43 C555.628852,479.094192 527.987685,467.072788 499.17,458.65 C547.61,402.1 577.81,319.84 577.81,257.58 C577.845789,226.033022 570.336973,194.934867 555.91,166.88 C551.41,168.4 546.77,169.8 542.65,170.98 L542.51,170.51 C502.32,182.84 441.94,189.78 376.95,189.51 C321.7,189.29 268.07,184.02 226.33,174.87 L226.52,174.52 C223.33,173.92 220.1,173.31 216.89,172.68 C213.89,171.946667 210.96,171.19 208.1,170.41 L207.96,170.93 L199.02,169.14 C185.403039,196.616828 178.335019,226.874115 178.37,257.54 C178.37,319.76 208.61,402.12 257.01,458.67 C219.89,471.15 188.01,486.39 160.54,503.6 C158.66,486.58 156.05,467.81 153.32,448.25 L153.31,448.25 Z M210.58,214.93 C210.68,214.53 210.79,214.13 210.9,213.72 L211.07,213.04 L211.07,213.04 C212.594045,207.3537 214.409781,201.749618 216.51,196.25 C263.35,207.14 321.94,212.58 379.46,212.58 C438.95,212.58 497.27,206.76 540.22,195.12 C544.22,203.81 544.45,208.33 547.42,223.06 C547.55,223.69 547.67,224.29 547.78,224.9 C549.942534,235.605918 551.051161,246.497925 551.09,257.42 C551.09,351.97 473.58,497.07 378.04,497.07 C283.04,497.07 205.88,353.58 205.04,259.02 L205.04,258.9 L205.04,257.8 L205.04,257.54 L205.04,257.45 C204.95,239.85 208.38,223.74 210.56,214.93 L210.58,214.93 Z M726.47,856.5 L29.91,856.5 C12.43,705.39 80.41,566.5 192.41,516.83 C198.09,554.18 209.14,593.3 225.55,627.44 C183.580268,653.923148 165.453802,705.876558 181.84,752.72 L203.91,815.5 L254.14,797.78 L245.38,772.61 L220.21,781.36 L206.91,743.63 C192.301225,701.991206 214.199154,656.39141 255.83,641.76 C297.25,627.12 343.09,649.08 357.7,690.68 L370.87,728.38 L345.7,737.13 L354.45,762.3 L404.66,744.59 L382.56,681.72 C363.439116,627.280676 304.412013,598.002239 249.5,615.72 C232.260863,580.106472 221.203252,541.820765 216.8,502.5 C234.12,492.17 242.31,488.72 278.18,479.75 C307.25,506.23 341.05,523.12 377.92,523.12 C414.79,523.12 448.59,506.23 477.66,479.75 C519.66,490.15 577.78,522.87 610.92,546.57 C603.229274,581.8197 590.070108,615.648881 571.92,646.83 C567.282321,645.413597 562.468552,644.656186 557.62,644.58 C532.025326,644.464468 509.92988,662.483593 504.894507,687.578328 C499.859134,712.673063 513.292857,737.821277 536.950871,747.588521 C560.608886,757.355766 587.87109,749.008923 602.005597,727.670778 C616.140104,706.332633 613.191726,677.974131 594.97,660 C612.283022,630.075007 625.40555,597.914718 633.97,564.42 C698.41,632 745.49,737.5 726.47,856.5 L726.47,856.5 Z M584.47,698.5 C584.474045,709.279828 577.983546,719.000454 568.025444,723.128518 C558.067343,727.256583 546.603063,724.978991 538.979143,717.357932 C531.355222,709.736872 529.073328,698.273448 533.197655,688.313798 C537.321982,678.354147 547.040171,671.860001 557.82,671.86 C572.5033,671.931133 584.388867,683.8167 584.46,698.5 L584.47,698.5 Z" id="Shape" fill="#000000"></path>
        </g>
    </g>
</svg>