<svg id="Calque_1" data-name="Calque 1" xmlns="http://www.w3.org/2000/svg" viewBox="0 0 757.83 825.42"><title>Icones_Ehnv</title><path d="M665.55,688a26.65,26.65,0,1,1-26.65-26.64A26.77,26.77,0,0,1,665.55,688Zm162,173.06H131c-20.14-125,31-245,125.26-317.35A378,378,0,0,0,289.4,651.16a106.53,106.53,0,0,0-43.71,125.26l22.1,62.74L318,821.43l-8.76-25.17L284.08,805l-13.34-37.69a79.93,79.93,0,0,1,48.92-101.87c41.42-14.64,87.26,7.32,101.87,48.92l13.17,37.7-25.17,8.75L418.27,786l50.21-17.71-22.1-62.87a106.4,106.4,0,0,0-133.06-66,349,349,0,0,1-32.68-113.26,338,338,0,0,1,98.62-41.94c29.07,26.48,62.87,43.37,99.74,43.37s70.67-16.89,99.74-43.37A331.05,331.05,0,0,1,692,536.07a345.84,345.84,0,0,1-39,100.26,51.74,51.74,0,0,0-14.3-2.25,53.53,53.53,0,1,0,37.35,15.42,377.41,377.41,0,0,0,39-95.54C801.08,627.93,846.58,742.44,827.56,861.09ZM306.47,255.69,367.23,213a113.61,113.61,0,0,1,122-5.2s74.26,56.85,156.63,8.63a174.44,174.44,0,0,1,6.32,45.49c0,94.55-77.51,239.66-173.05,239.66s-173-145-173-239.53C306.17,259.89,306.31,257.77,306.47,255.69ZM479.19,89A172.85,172.85,0,0,1,636.65,190.69c-66.46,45.32-133.88-5.85-133.88-5.85A140.3,140.3,0,0,0,352,191.17l-40.3,28.25C330.7,144.68,398.46,89,479.19,89ZM600.25,463c48.44-56.55,78.64-138.74,78.64-201,0-110.15-89.53-199.66-199.7-199.66S279.49,151.83,279.49,262c0,62.22,30.24,144.45,78.64,201C65.18,561.46,95.9,832.49,108.72,887.73H849.65C893.38,698.43,777.68,514.84,600.25,463Z" transform="translate(-101.08 -62.31)"/></svg>