<?xml version="1.0" encoding="UTF-8" standalone="no"?>
<svg width="25px" height="25px" viewBox="0 0 25 25" version="1.1" xmlns="http://www.w3.org/2000/svg" xmlns:xlink="http://www.w3.org/1999/xlink" xmlns:sketch="http://www.bohemiancoding.com/sketch/ns">
    <!-- Generator: Sketch 3.5.1 (25234) - http://www.bohemiancoding.com/sketch -->
    <title>search</title>
    <desc>Created with Sketch.</desc>
    <defs></defs>
    <g id="Page-1" stroke="none" stroke-width="1" fill="none" fill-rule="evenodd" sketch:type="MSPage">
        <path d="M9.291,15.7224 C5.738,15.7224 2.858,12.8424 2.858,9.2894 C2.858,5.7374 5.738,2.8574 9.291,2.8574 C12.844,2.8574 15.723,5.7374 15.723,9.2894 C15.723,12.8424 12.844,15.7224 9.291,15.7224 L9.291,15.7224 Z M17.869,15.7224 L16.735,15.7224 L16.341,15.3304 C17.734,13.7054 18.582,11.5984 18.582,9.2894 C18.582,4.1584 14.422,-0.0016 9.291,-0.0016 C4.159,-0.0016 0,4.1584 0,9.2894 C0,14.4204 4.159,18.5804 9.291,18.5804 C11.6,18.5804 13.705,17.7344 15.33,16.3414 L15.725,16.7344 L15.725,17.8654 L22.869,25.0004 L25,22.8684 L17.869,15.7224 Z" id="search" fill="#000000" sketch:type="MSShapeGroup"></path>
    </g>
</svg>