<?xml version="1.0" encoding="UTF-8" standalone="no"?>
<svg width="45px" height="37px" viewBox="0 0 45 37" version="1.1" xmlns="http://www.w3.org/2000/svg" xmlns:xlink="http://www.w3.org/1999/xlink" xmlns:sketch="http://www.bohemiancoding.com/sketch/ns">
    <!-- Generator: Sketch 3.5.2 (25235) - http://www.bohemiancoding.com/sketch -->
    <title>twitter</title>
    <desc>Created with Sketch.</desc>
    <defs></defs>
    <g id="Page-1" stroke="none" stroke-width="1" fill="none" fill-rule="evenodd" sketch:type="MSPage">
        <path d="M45,4.7588 C43.344,5.4918 41.565,5.9888 39.698,6.2118 C41.604,5.0698 43.067,3.2608 43.757,1.1048 C41.973,2.1618 39.997,2.9308 37.894,3.3448 C36.21,1.5508 33.811,0.4298 31.155,0.4298 C26.056,0.4298 21.923,4.5628 21.923,9.6608 C21.923,10.3848 22.004,11.0898 22.162,11.7658 C14.489,11.3798 7.686,7.7048 3.133,2.1188 C2.338,3.4828 1.883,5.0688 1.883,6.7608 C1.883,9.9638 3.513,12.7888 5.99,14.4458 C4.477,14.3978 3.053,13.9818 1.808,13.2898 L1.808,13.4058 C1.808,17.8798 4.99,21.6108 9.213,22.4588 C8.439,22.6698 7.623,22.7828 6.781,22.7828 C6.186,22.7828 5.608,22.7258 5.044,22.6168 C6.219,26.2848 9.628,28.9538 13.668,29.0298 C10.508,31.5048 6.528,32.9808 2.202,32.9808 C1.457,32.9808 0.722,32.9378 0,32.8518 C4.085,35.4718 8.938,36.9998 14.152,36.9998 C31.133,36.9998 40.419,22.9318 40.419,10.7318 C40.419,10.3318 40.411,9.9338 40.393,9.5368 C42.197,8.2358 43.762,6.6098 45,4.7588" id="twitter" fill="#000000" sketch:type="MSShapeGroup"></path>
    </g>
</svg>