<svg xmlns="http://www.w3.org/2000/svg" fill="none" viewBox="0 0 35 35"><path fill="#fff" d="M33.793 2.414h-1.207V3.62a2.414 2.414 0 1 1-4.827 0V2.414h-3.621V3.62a2.414 2.414 0 1 1-4.828 0V2.414h-3.62V3.62a2.414 2.414 0 0 1-4.828 0V2.414h-3.62V3.62a2.414 2.414 0 1 1-4.828 0V2.414H1.207A1.207 1.207 0 0 0 0 3.62v4.827h35V3.621a1.207 1.207 0 0 0-1.207-1.207z"/><path fill="#fff" d="M6.034 1.207a1.207 1.207 0 0 0-2.413 0V3.62a1.207 1.207 0 1 0 2.413 0V1.207zm16.897 0a1.207 1.207 0 0 0-2.414 0V3.62a1.207 1.207 0 1 0 2.414 0V1.207zm-8.448 0a1.207 1.207 0 1 0-2.414 0V3.62a1.207 1.207 0 0 0 2.414 0V1.207zm16.896 0a1.207 1.207 0 1 0-2.414 0V3.62a1.207 1.207 0 0 0 2.414 0V1.207zM0 33.793A1.207 1.207 0 0 0 1.207 35h32.586A1.207 1.207 0 0 0 35 33.793V9.655H0v24.138zM4.224 15.69a1.81 1.81 0 0 1 1.81-1.81h22.931a1.81 1.81 0 0 1 1.81 1.81v13.276a1.81 1.81 0 0 1-1.81 1.81H6.035a1.81 1.81 0 0 1-1.81-1.81V15.69z"/><path fill="#fff" d="M7.241 16.896h5.431v3.621h-5.43v-3.62zm15.087 10.26h6.034v1.206h-6.034v-1.207zm2.413-3.621h3.62v1.206h-3.62v-1.206zm-6.034 0h3.62v1.206h-3.62v-1.206zm-6.035 0h3.621v1.206h-3.62v-1.206zm-6.034 0h3.62v1.206h-3.62v-1.206zm0 3.62h3.62v1.207h-3.62v-1.207zm4.827 0h3.621v1.207h-3.62v-1.207z"/></svg>