<svg xmlns="http://www.w3.org/2000/svg" viewBox="0 0 967 372"><g fill="#FFF" fill-rule="evenodd"><g fill-rule="nonzero"><path d="M518.9 310.08c0 32.84 26.63 59.46 59.49 59.46 32.87 0 59.49-26.63 59.49-59.46 0-32.89-26.63-59.49-59.49-59.49s-59.49 26.6-59.49 59.49zm28.46 0c0-17.15 13.86-31.04 31.01-31.04 17.15 0 31.04 13.89 31.04 31.04s-13.89 31.04-31.04 31.04c-17.13.01-31.01-13.91-31.01-31.04zm-465.88 1.59c0 32.84 26.63 59.46 59.49 59.46 32.87 0 59.49-26.63 59.49-59.46 0-32.89-26.63-59.49-59.49-59.49s-59.49 26.6-59.49 59.49zm28.45 0c0-17.15 13.86-31.04 31.01-31.04 17.15 0 31.04 13.89 31.04 31.04s-13.89 31.04-31.04 31.04c-17.12 0-31.01-13.91-31.01-31.04z"/><path d="M19.58 295.11s12.53 20.24 25.8 21.63h26.77c-.32-2.77-.56-5.56-.56-8.44 0-38.13 30.92-69.05 69.05-69.05 38.13 0 69.05 30.89 69.05 69.05 0 2.85-.24 5.68-.56 8.44h300.79c-.32-2.77-.56-5.56-.56-8.44 0-38.13 30.92-69.05 69.05-69.05 38.13 0 69.05 30.89 69.05 69.05 0 2.85-.24 5.68-.56 8.44h3.18s18.15-.71 18.83-19.54c0 0 18.83 2.09 18.83-9.77 0 0 4.18-13.95-11.86-15.33 0 0 4.88-43.96-19.54-68.35 0 0-24.42-32.78-140.17-37.66 0 0-57.9-71.14-67.64-76.03 0 0-13.95-10.47-26.51-11.86H227.49s-48.81-4.18-80.91 26.51c0 0-52.28 49.28-63.46 73.47 0 0-55.78 39.51-64.17 89.74 0 0-16.74 4.88-18.12 13.95-.07 0-3.57 11.86 18.75 13.24zm281.75-81.94c0-2.5 2.03-4.53 4.53-4.53h20.92c2.5 0 4.53 2.03 4.53 4.53 0 2.5-2.03 4.53-4.53 4.53h-20.92c-2.5 0-4.53-2.03-4.53-4.53zm-13.95-94.68c1.06-21.98 24.6-17.27 24.6-17.27l89.97-.44c14.12 0 27.19 15.06 27.19 15.06l26.16 32.95c20.39 25.63-9.42 23.54-9.42 23.54l-138.61.03c-14.65 0-19.89-12.03-19.89-12.03v-41.84zm-134.96 34.54c30.86-60.17 103.57-52.2 103.57-52.2 9.94.62 11.5 9.33 11.5 9.33v49.69c-1.06 14.65-11.5 12.59-11.5 12.59l-86.3-.03c-26.69-4.14-17.27-19.38-17.27-19.38zm276.13-89.36c0 5-3.15 9.06-7 9.06h-221.7c-3.88 0-7.03-4.06-7.03-9.06 0-5 3.15-9.06 7.03-9.06h221.7c3.85-.03 7 4.06 7 9.06z"/></g><path d="M938.04 46.37c-2.76 22.19-22.99 37.96-45.19 35.2-22.19-2.76-37.96-22.99-35.2-45.19 2.76-22.19 22.99-37.96 45.19-35.2 22.19 2.76 37.96 22.98 35.2 45.19m-69.66 41.78l47.58 6.34c9.52 0 15.86 9.52 15.86 19.03-4.76 38.07-3.18 61.86 28.55 85.66 15.86 12.69-1.58 36.48-17.45 23.79-9.52-6.34-15.86-14.27-22.21-22.21-1.58 9.52-3.18 19.03-14.27 22.21 31.73 34.9 53.93 79.31 60.27 125.31 3.18 23.79-34.9 28.55-38.07 4.76-3.18-33.31-17.45-65.03-38.07-92-14.27 36.48-33.31 69.79-58.69 101.52-15.86 19.03-44.42-4.76-28.55-23.79 26.97-33.31 44.42-69.79 58.69-107.86-9.52-9.52-26.97-20.61-25.39-33.31l7.93-63.45c-19.03 15.86-30.14 34.9-31.73 61.86-1.58 20.61-31.73 19.03-30.14-1.58 3.18-50.76 31.73-82.48 74.55-104.69 3.18-1.58 6.34-3.18 11.1-1.58l.04-.01z"/></g></svg>