<svg xmlns="http://www.w3.org/2000/svg" fill="none" viewBox="0 0 34 34"><path fill="#fff" d="M17 6.508C11.215 6.508 6.508 11.215 6.508 17c0 5.785 4.707 10.492 10.492 10.492 5.785 0 10.492-4.707 10.492-10.492S22.785 6.508 17 6.508zm.996 11.488h-6.773v-1.992h4.78V8.256h1.993v9.74z"/><path fill="#fff" d="M29.02 4.98A16.889 16.889 0 0 0 17 0C12.46 0 8.19 1.768 4.98 4.98 1.767 8.19 0 12.46 0 17s1.768 8.81 4.98 12.02C8.19 32.233 12.46 34 17 34s8.81-1.768 12.02-4.98C32.233 25.81 34 21.54 34 17c0-4.54-1.768-8.81-4.98-12.02zM17 29.483c-6.884 0-12.484-5.6-12.484-12.484S10.116 4.516 17 4.516 29.484 10.116 29.484 17 23.884 29.484 17 29.484z"/></svg>